<?xml version="1.0" standalone="no"?>
<!DOCTYPE svg PUBLIC "-//W3C//DTD SVG 20010904//EN"
 "http://www.w3.org/TR/2001/REC-SVG-20010904/DTD/svg10.dtd">
<svg version="1.0" xmlns="http://www.w3.org/2000/svg"
 width="960.000000pt" height="540.000000pt" viewBox="0 0 960.000000 540.000000"
 preserveAspectRatio="xMidYMid meet">

<g transform="translate(0.000000,540.000000) scale(0.100000,-0.100000)"
fill="#000000" stroke="none">
<path d="M1310 5275 c-8 -2 -49 -9 -90 -15 -257 -42 -555 -212 -824 -470 -148
-143 -232 -282 -262 -435 -19 -97 -13 -141 29 -219 24 -44 32 -72 31 -105 -2
-42 -1 -43 8 -18 9 25 13 27 46 22 35 -6 91 -17 102 -20 3 -1 24 -5 48 -10 36
-6 42 -11 43 -34 2 -25 2 -25 6 -2 4 21 8 23 49 16 36 -5 65 1 161 33 139 47
230 67 402 87 247 30 516 89 489 107 -9 6 -6 7 9 3 30 -8 79 5 61 16 -11 8
-10 11 2 18 16 11 33 4 25 -10 -4 -5 -3 -9 0 -9 29 0 295 94 401 141 72 33
138 59 146 59 9 0 31 -19 50 -42 37 -46 98 -134 98 -141 0 -2 -21 -12 -46 -22
l-46 -17 -39 38 c-21 21 -39 34 -39 30 0 -5 -7 -3 -15 4 -19 16 -19 7 1 -31 8
-17 14 -33 11 -35 -5 -5 -37 65 -41 89 -1 9 -5 20 -9 23 -14 15 -6 -27 18 -94
14 -38 25 -72 25 -75 0 -7 -70 -50 -74 -46 -1 2 -14 24 -29 49 -36 61 -114
148 -114 127 0 -9 3 -15 7 -14 7 2 60 -57 60 -67 0 -3 -7 -6 -16 -6 -8 0 -13
-4 -10 -9 3 -5 15 -7 25 -4 15 4 26 -6 47 -42 15 -26 32 -61 38 -78 6 -18 19
-43 28 -57 9 -14 28 -63 43 -110 17 -59 23 -71 19 -40 -4 25 -15 69 -26 98
-22 58 -22 57 7 66 30 8 39 -2 88 -92 24 -45 47 -79 50 -75 4 3 2 12 -4 19 -7
9 -7 18 0 31 6 11 11 13 11 5 0 -10 5 -9 17 3 13 14 14 21 5 36 -6 10 -8 20
-3 23 6 4 133 -30 149 -40 2 -1 10 -24 17 -51 15 -54 19 -29 5 32 -8 36 -7 38
6 21 21 -30 17 -9 -5 22 -11 15 -23 38 -27 52 -6 23 -6 24 12 10 10 -8 7 -1
-7 15 -28 32 -109 182 -109 203 0 7 -4 12 -9 12 -5 0 -20 17 -33 38 -12 20
-42 60 -65 88 -37 46 -41 55 -34 86 4 18 14 44 21 58 18 35 40 119 40 159 0
87 -159 279 -349 421 -145 108 -319 169 -501 175 -63 2 -122 2 -130 0z m-110
-51 c-88 -19 -172 -61 -390 -194 -279 -169 -388 -265 -505 -439 -81 -123 -127
-239 -127 -321 -1 -58 32 -159 57 -180 28 -23 15 -31 -14 -10 -17 11 -42 45
-57 75 -24 51 -26 63 -22 143 9 159 90 305 267 483 108 107 125 120 337 252
191 119 310 174 425 196 73 15 99 10 29 -5z m630 -407 c0 -2 -17 -19 -37 -38
l-38 -34 34 38 c33 34 41 42 41 34z m50 -33 c0 -2 -9 0 -20 6 -11 6 -20 13
-20 16 0 2 9 0 20 -6 11 -6 20 -13 20 -16z m-66 -39 c-10 -8 -23 -14 -29 -14
-5 0 -1 6 9 14 11 8 24 15 30 15 5 0 1 -7 -10 -15z m86 5 c13 -9 13 -10 0 -9
-8 1 -26 5 -40 9 l-25 8 25 1 c14 0 32 -4 40 -9z m90 -36 c0 -2 -9 0 -20 6
-11 6 -20 13 -20 16 0 2 9 0 20 -6 11 -6 20 -13 20 -16z m-220 6 c0 -4 -10
-15 -22 -26 -13 -10 -17 -12 -10 -4 25 29 11 33 -20 4 l-33 -29 28 31 c25 28
57 41 57 24z m70 -20 c-9 -6 -17 -5 -22 3 -9 15 14 29 27 16 6 -6 5 -13 -5
-19z m-44 -2 c-2 -7 -12 -33 -24 -58 -14 -30 -17 -47 -10 -51 6 -4 7 -12 4
-18 -4 -6 -1 -11 6 -11 7 0 24 -9 37 -19 19 -15 21 -19 8 -24 -20 -8 -70 31
-63 49 3 8 1 14 -5 14 -15 0 -2 77 18 105 20 26 33 32 29 13z m119 2 c-3 -5
-1 -10 6 -10 7 0 10 -3 6 -6 -9 -9 -28 6 -22 17 4 5 8 9 11 9 3 0 2 -4 -1 -10z
m45 -28 c0 -15 -2 -15 -10 -2 -13 20 -13 33 0 25 6 -3 10 -14 10 -23z m-115
-12 c-3 -5 9 -14 27 -20 28 -8 29 -9 6 -6 -25 3 -28 0 -28 -25 0 -15 5 -31 11
-35 13 -8 -8 -24 -31 -23 -10 0 -11 2 -2 6 14 6 16 39 2 48 -5 3 -10 11 -10
16 0 6 4 8 10 4 5 -3 8 7 5 25 -2 17 0 28 6 24 5 -3 7 -9 4 -14z m152 -12 c-3
-7 -5 -2 -5 12 0 14 2 19 5 13 2 -7 2 -19 0 -25z m-265 -3 c-2 -14 -9 -25 -14
-25 -5 0 -7 3 -5 8 2 4 7 15 10 25 9 25 15 21 9 -8z m202 17 c3 -5 -1 -9 -9
-9 -8 0 -12 4 -9 9 3 4 7 8 9 8 2 0 6 -4 9 -8z m33 -64 c-2 -13 -4 -5 -4 17
-1 22 1 32 4 23 2 -10 2 -28 0 -40z m-287 -13 c0 -5 -5 -3 -10 5 -5 8 -10 20
-10 25 0 6 5 3 10 -5 5 -8 10 -19 10 -25z m127 29 c-3 -3 -12 -4 -19 -1 -8 3
-5 6 6 6 11 1 17 -2 13 -5z m180 -26 c-3 -7 -5 -2 -5 12 0 14 2 19 5 13 2 -7
2 -19 0 -25z m-226 -94 c13 -14 37 -28 53 -33 l31 -9 -27 -1 c-48 -2 -110 80
-107 141 0 13 7 2 14 -26 7 -26 24 -59 36 -72z m190 45 c-11 -30 -60 -83 -68
-75 -3 3 5 15 19 26 14 10 31 33 38 50 15 36 25 35 11 -1z m26 -11 c-3 -7 -5
-2 -5 12 0 14 2 19 5 13 2 -7 2 -19 0 -25z m-248 -53 c0 -5 -8 6 -19 25 -11
19 -19 40 -19 45 0 6 8 -6 19 -25 11 -19 19 -39 19 -45z m146 55 c-3 -5 -13
-10 -21 -10 -8 0 -14 5 -14 10 0 6 9 10 21 10 11 0 17 -4 14 -10z m87 -62 c-8
-8 -9 -4 -5 13 4 13 8 18 11 10 2 -7 -1 -18 -6 -23z m-209 -40 c10 -16 14 -28
9 -28 -8 0 -32 43 -32 57 0 7 1 6 23 -29z m184 26 c-3 -3 -12 -4 -19 -1 -8 3
-5 6 6 6 11 1 17 -2 13 -5z m-82 -24 c-11 -5 -27 -9 -35 -9 -9 0 -8 4 5 9 11
5 27 9 35 9 9 0 8 -4 -5 -9z m101 -85 c-11 -8 -27 -15 -35 -15 -13 1 -12 4 3
15 11 8 27 15 35 15 13 -1 12 -4 -3 -15z m336 -130 c24 9 49 19 56 22 9 4 12
-8 11 -43 -2 -48 -2 -48 -8 -12 l-6 37 -44 -20 -45 -20 -45 48 c-45 46 -45 47
-4 9 l42 -39 43 18z m-1341 -9 c-12 -13 -43 -38 -69 -55 -39 -27 -41 -27 -12
-4 19 15 48 40 65 55 37 34 46 36 16 4z m1469 -100 c18 -42 37 -73 42 -70 4 3
5 -1 2 -9 -2 -7 0 -25 5 -40 9 -23 8 -25 -10 -22 -11 2 -45 13 -74 24 -39 15
-55 17 -58 8 -2 -7 -7 -10 -10 -7 -3 3 -2 11 2 18 6 10 17 9 51 -3 23 -8 54
-17 67 -19 23 -5 23 -4 -7 35 -18 21 -34 39 -37 39 -4 0 1 -8 9 -17 8 -10 18
-25 22 -33 4 -8 -4 -2 -18 15 -16 19 -22 33 -16 40 5 7 6 16 1 21 -13 13 -25
107 -13 100 5 -3 24 -39 42 -80z m-230 54 c0 -5 -16 -20 -36 -34 -33 -22 -34
-25 -17 -35 24 -14 8 -14 -18 0 -19 10 -18 12 18 36 21 14 40 29 41 34 5 12
12 11 12 -1z m-1020 -9 c0 -6 -5 -13 -10 -16 -15 -9 -43 3 -35 15 8 13 45 13
45 1z m1148 -29 c2 -12 8 -20 13 -16 5 3 21 -4 35 -15 15 -12 22 -21 17 -21
-6 0 -16 7 -23 15 -16 19 -30 19 -30 -1 0 -8 -4 -12 -10 -9 -5 3 -10 1 -10 -5
0 -6 -5 -8 -12 -4 -8 5 -9 2 -4 -11 5 -14 4 -15 -7 -7 -8 7 -18 7 -27 2 -13
-8 -12 -10 3 -10 9 0 17 -7 17 -15 0 -8 -9 -15 -20 -15 -11 0 -20 5 -20 10 0
6 -10 15 -22 20 -13 5 -17 9 -10 9 7 1 11 5 7 10 -3 5 -1 12 3 15 5 3 7 16 5
29 -4 18 2 25 24 34 42 17 67 12 71 -15z m-1488 -8 c0 -8 -184 -94 -201 -94
-8 0 20 15 61 33 41 18 89 41 105 50 35 19 35 19 35 11z m1370 -49 c0 -7 -57
-35 -72 -35 -7 0 5 9 27 19 48 23 45 22 45 16z m74 -97 c-4 -14 -2 -18 5 -14
6 4 11 3 11 -3 0 -5 8 -12 18 -14 9 -3 5 -4 -10 -4 -20 1 -30 8 -37 28 -10 28
-5 43 11 33 5 -3 6 -15 2 -26z"/>
<path d="M8023 5003 c9 -2 23 -2 30 0 6 3 -1 5 -18 5 -16 0 -22 -2 -12 -5z"/>
<path d="M8203 5003 c9 -2 23 -2 30 0 6 3 -1 5 -18 5 -16 0 -22 -2 -12 -5z"/>
<path d="M8255 5000 c3 -5 10 -10 16 -10 5 0 9 5 9 10 0 6 -7 10 -16 10 -8 0
-12 -4 -9 -10z"/>
<path d="M7914 4993 c35 -4 37 -5 20 -19 -17 -13 -16 -13 11 -1 17 8 37 17 45
20 8 3 -14 5 -50 5 -40 -1 -50 -3 -26 -5z"/>
<path d="M7838 4983 c7 -3 16 -2 19 1 4 3 -2 6 -13 5 -11 0 -14 -3 -6 -6z"/>
<path d="M7688 4934 c-39 -21 -35 -28 5 -8 37 19 44 24 31 24 -5 -1 -21 -8
-36 -16z"/>
<path d="M8360 4946 c0 -2 8 -10 18 -17 15 -13 16 -12 3 4 -13 16 -21 21 -21
13z"/>
<path d="M7829 4893 c-39 -42 -90 -105 -63 -78 30 29 116 125 113 125 -3 0
-25 -21 -50 -47z"/>
<path d="M8578 4866 c48 -40 107 -95 131 -122 24 -27 34 -35 23 -19 -11 17
-48 57 -81 89 -33 33 -58 63 -55 68 3 4 -3 5 -12 1 -11 -4 -15 -3 -10 5 6 9
-59 52 -79 52 -3 0 34 -33 83 -74z"/>
<path d="M8415 4890 c10 -11 20 -20 23 -20 3 0 -3 9 -13 20 -10 11 -20 20 -23
20 -3 0 3 -9 13 -20z"/>
<path d="M7599 4879 l-24 -20 28 17 c15 9 27 18 27 20 0 8 -8 4 -31 -17z"/>
<path d="M7544 4838 l-19 -23 23 19 c12 11 22 21 22 23 0 8 -8 2 -26 -19z"/>
<path d="M8640 4856 c0 -2 14 -14 30 -26 17 -12 30 -19 30 -16 0 2 -13 14 -30
26 -16 12 -30 19 -30 16z"/>
<path d="M7455 4758 l-60 -63 63 60 c58 55 67 65 59 65 -1 0 -29 -28 -62 -62z"/>
<path d="M3885 4154 c-490 -359 -890 -659 -889 -666 1 -11 486 -1529 627
-1961 l51 -157 1102 0 1102 0 31 93 c16 50 91 281 165 512 490 1527 487 1518
474 1531 -13 12 -1744 1284 -1763 1296 -6 4 -411 -288 -900 -648z m1761 -29
c471 -346 860 -632 865 -636 11 -6 38 80 -271 -879 -144 -448 -290 -902 -323
-1008 l-62 -192 -1079 2 -1080 3 -167 520 c-92 286 -241 751 -332 1033 l-165
514 142 104 c1161 857 1593 1173 1603 1171 7 -1 398 -285 869 -632z"/>
<path d="M3935 4079 c-479 -353 -829 -617 -827 -625 2 -11 136 -429 563 -1757
l70 -217 1036 2 1036 3 318 990 c175 544 315 993 311 996 -37 33 -1651 1213
-1662 1215 -8 2 -388 -271 -845 -607z m808 178 c18 -12 51 -117 38 -117 -19 0
-40 30 -54 78 -15 54 -13 61 16 39z m59 -4 c10 -9 18 -26 18 -39 0 -12 4 -34
10 -48 11 -29 8 -31 -20 -16 -11 6 -22 26 -26 48 -4 20 -11 45 -16 55 -11 22
9 23 34 0z m51 4 c22 -16 40 -117 21 -117 -18 0 -25 15 -40 77 -13 55 -10 62
19 40z m72 -46 c15 -92 15 -93 -17 -64 -10 9 -18 29 -18 44 0 15 -4 39 -10 53
-9 24 -8 25 15 14 17 -8 26 -22 30 -47z m-291 36 c23 -17 59 -107 43 -107 -22
0 -36 16 -56 64 -12 26 -21 50 -21 52 0 8 17 4 34 -9z m63 1 c6 -7 17 -34 25
-60 11 -36 12 -48 3 -48 -18 0 -43 31 -51 65 -4 17 -11 36 -17 43 -7 9 -4 12
11 12 11 0 24 -6 29 -12z m265 -5 c8 -10 18 -42 21 -71 6 -49 5 -52 -13 -42
-17 9 -22 25 -34 108 -4 26 5 28 26 5z m-372 -13 c11 -11 20 -26 20 -32 0 -7
7 -25 14 -40 11 -22 12 -28 2 -28 -22 0 -43 24 -64 73 -17 38 -18 47 -6 47 8
0 23 -9 34 -20z m422 8 c11 -9 18 -32 20 -70 3 -51 1 -55 -14 -47 -19 10 -25
29 -31 92 -3 40 0 44 25 25z m-487 -4 c18 -7 60 -93 50 -103 -11 -11 -40 16
-62 59 -13 24 -23 45 -23 47 0 5 17 4 35 -3z m550 -17 c14 -23 18 -117 4 -117
-16 0 -27 29 -31 83 -5 61 3 71 27 34z m57 -20 c1 -7 2 -35 2 -63 1 -46 -1
-51 -16 -43 -14 7 -18 22 -18 59 0 26 -3 56 -7 65 -5 15 -3 16 15 6 12 -7 23
-17 24 -24z m-624 -31 c13 -26 21 -51 18 -54 -9 -8 -56 27 -56 42 0 7 -10 26
-21 40 l-22 28 29 -4 c23 -2 33 -12 52 -52z m-82 36 c17 -11 64 -102 53 -102
-24 0 -50 23 -69 60 -11 22 -20 42 -20 45 0 7 23 6 36 -3z m758 -20 c3 -10 5
-40 3 -69 -2 -48 -3 -51 -19 -36 -24 21 -26 136 -3 127 8 -3 17 -13 19 -22z
m-777 -44 l33 -48 -24 0 c-18 0 -33 12 -55 46 -37 54 -37 56 -9 52 12 -2 36
-23 55 -50z m827 25 c9 -21 -4 -113 -16 -113 -15 0 -25 43 -20 92 3 34 8 45
17 42 7 -3 16 -13 19 -21z m-908 -1 c6 -4 23 -26 38 -49 24 -40 25 -43 7 -43
-20 0 -93 79 -85 92 6 10 26 10 40 0z m954 -13 c7 -12 9 -41 4 -75 -6 -48 -8
-54 -21 -42 -15 16 -17 28 -12 96 3 46 12 53 29 21z m60 -48 c0 -9 -6 -36 -14
-61 -12 -42 -14 -43 -25 -23 -7 14 -9 42 -5 78 7 53 8 55 25 39 11 -10 19 -24
19 -33z m-1030 -6 c29 -42 30 -45 10 -45 -19 0 -32 10 -77 64 l-21 26 28 0
c23 0 35 -9 60 -45z m-46 -20 c37 -44 37 -45 13 -45 -24 0 -102 72 -90 84 16
16 44 2 77 -39z m1117 23 c7 -17 6 -38 -4 -76 -12 -46 -15 -51 -27 -38 -9 12
-11 30 -5 64 4 26 7 53 8 60 1 20 17 14 28 -10z m-1169 -48 c35 -39 38 -50 11
-50 -14 0 -93 73 -93 85 0 3 11 5 23 5 15 0 37 -15 59 -40z m1214 15 c4 -14 1
-46 -6 -71 -12 -41 -15 -44 -28 -30 -13 13 -14 22 -2 71 14 60 26 69 36 30z
m-622 -71 l23 -69 93 -3 94 -3 -68 -45 c-37 -25 -69 -51 -72 -58 -3 -7 6 -43
21 -81 14 -37 25 -69 25 -72 0 -2 -32 18 -71 46 l-71 50 -74 -50 -74 -50 29
80 29 79 -71 49 -72 48 89 5 90 5 25 72 c14 39 27 70 28 69 2 -2 14 -34 27
-72z m-630 26 l38 -40 -28 0 c-26 0 -94 52 -94 72 0 23 50 4 84 -32z m1303
-15 c-8 -48 -26 -87 -37 -80 -14 8 -13 47 2 95 10 31 15 37 26 27 9 -7 12 -22
9 -42z m-1352 -15 l39 -40 -28 0 c-32 0 -114 65 -93 74 28 11 45 4 82 -34z
m1393 4 c4 -36 -25 -107 -39 -98 -10 6 -9 24 7 102 8 40 28 37 32 -4z m-1435
-34 l42 -39 -30 0 c-34 0 -116 63 -93 72 27 11 40 6 81 -33z m1487 -6 c0 -6
-10 -33 -22 -60 -20 -46 -22 -48 -31 -26 -8 17 -7 32 2 55 7 18 15 43 18 56 6
23 7 23 19 6 8 -10 14 -24 14 -31z m-1531 -28 c37 -31 39 -35 21 -41 -22 -7
-29 -3 -77 34 -17 14 -29 29 -27 33 11 17 44 7 83 -26z m1571 -7 c0 -10 -11
-38 -24 -63 -17 -32 -26 -41 -30 -30 -10 26 -6 58 9 78 8 11 15 29 15 39 0 16
3 17 15 7 8 -7 15 -21 15 -31z m-1607 -28 c58 -45 12 -61 -47 -16 -18 14 -39
25 -47 25 -11 0 -11 2 1 10 26 17 56 11 93 -19z m1647 -13 c0 -9 -11 -38 -25
-63 -24 -46 -24 -46 -31 -20 -8 33 35 133 48 113 4 -7 8 -21 8 -30z m-1689
-25 c38 -25 40 -28 21 -36 -16 -7 -32 -3 -67 17 -25 15 -43 31 -40 37 11 16
45 10 86 -18z m340 17 c24 -13 24 -36 0 -82 l-20 -36 45 25 c24 14 44 31 44
38 0 19 37 61 46 52 5 -5 1 -21 -8 -37 -16 -28 -16 -29 10 -39 26 -11 26 -11
-7 -7 -23 2 -47 -4 -70 -18 l-36 -21 48 -6 c61 -7 82 -32 52 -62 -18 -18 -73
-7 -115 23 -25 17 -26 17 -54 -5 l-30 -24 50 -3 c47 -3 49 -4 49 -33 0 -38
-29 -44 -92 -20 -43 17 -46 17 -64 -2 -19 -18 -18 -18 21 -15 38 4 70 -9 70
-29 0 -4 -8 -15 -17 -24 -16 -17 -49 -16 -119 1 -15 4 -26 -2 -38 -21 -17 -26
-17 -26 3 -16 55 30 123 -6 84 -45 -13 -13 -29 -15 -75 -11 -50 4 -60 2 -68
-13 -15 -29 -12 -32 14 -14 30 19 65 15 80 -8 17 -28 -14 -50 -79 -57 -47 -5
-59 -10 -66 -28 l-8 -22 34 20 c37 22 69 19 80 -9 9 -25 -26 -49 -85 -57 -27
-4 -50 -11 -50 -15 0 -5 -3 -16 -6 -25 -5 -12 3 -10 31 9 42 29 56 31 73 14
22 -22 13 -48 -20 -62 -29 -13 -30 -14 -10 -20 32 -10 29 -53 -4 -68 l-25 -12
25 -13 c14 -8 26 -20 26 -27 0 -17 -61 -72 -90 -81 -14 -4 -19 -12 -16 -22 3
-8 6 -19 6 -25 0 -6 10 4 23 23 17 26 30 34 52 34 23 0 31 -5 33 -21 3 -20
-16 -42 -75 -84 -15 -11 -19 -21 -14 -40 7 -24 8 -24 26 15 22 44 53 56 75 30
11 -14 11 -21 -4 -46 -17 -29 -17 -29 7 -29 14 0 28 -7 31 -16 7 -17 -24 -83
-48 -103 -14 -12 -14 -16 1 -45 l17 -31 6 48 c6 51 20 68 51 60 39 -11 37 -44
-6 -108 l-26 -38 23 -23 23 -24 0 53 c0 51 0 52 30 52 26 0 30 -4 33 -32 2
-18 -6 -49 -17 -72 l-21 -40 29 -20 28 -20 -11 40 c-12 46 -1 72 32 77 36 5
48 -36 29 -95 l-17 -48 27 -22 c33 -27 41 -23 19 9 -24 33 -21 85 4 93 38 12
52 -12 48 -81 -3 -62 -3 -63 29 -78 l32 -15 -19 32 c-26 42 -25 73 1 88 32 17
53 -10 59 -79 l5 -57 80 -16 c72 -14 77 -16 50 -24 -35 -10 -55 -9 -111 6 -38
10 -46 8 -88 -16 -52 -31 -99 -31 -105 -1 -4 25 24 46 63 46 l31 1 -27 15
c-25 13 -30 12 -60 -6 -18 -11 -50 -20 -70 -20 -34 0 -38 3 -38 24 0 28 10 36
54 46 29 6 30 7 11 17 -15 8 -34 8 -74 -3 -60 -15 -91 -6 -91 26 0 25 35 43
68 35 l27 -6 -20 20 c-18 18 -25 19 -55 11 -55 -16 -88 -12 -100 11 -17 31 5
52 52 47 42 -4 45 -2 23 22 -12 13 -27 16 -64 12 -54 -5 -91 10 -91 37 0 35
26 46 71 28 l41 -16 -15 22 c-11 17 -27 23 -76 28 -67 6 -85 17 -79 44 6 34
32 40 75 19 l40 -20 -10 26 c-8 22 -20 29 -67 38 -61 13 -84 30 -78 59 4 24
43 28 74 8 14 -9 27 -15 29 -13 10 10 -9 48 -23 48 -25 0 -100 39 -106 55 -18
49 42 61 87 18 26 -25 27 -26 20 -6 -5 13 -32 34 -63 50 -45 23 -55 33 -55 53
0 39 48 40 83 2 l28 -30 -4 33 c-3 25 -11 36 -32 45 -15 6 -40 25 -56 41 l-28
29 21 21 c17 18 24 19 42 9 12 -6 31 -26 41 -43 l20 -32 0 30 c0 22 -11 39
-46 71 -34 31 -45 48 -42 66 2 18 9 23 33 23 24 0 33 -7 47 -34 14 -27 19 -31
24 -18 4 11 -8 32 -35 63 -43 49 -50 74 -26 94 31 25 74 -17 75 -73 1 -18 4
-15 15 12 15 32 14 35 -15 67 -49 57 -52 104 -6 104 29 0 44 -17 52 -60 l7
-33 14 28 c13 25 12 31 -14 81 -30 58 -26 86 14 92 30 5 45 -22 41 -73 -2 -25
-3 -45 -2 -45 0 0 10 14 23 30 l22 31 -21 56 c-11 30 -18 63 -15 73 8 24 32
32 57 19 17 -9 20 -18 16 -61 l-5 -50 24 25 c24 23 24 26 12 85 -14 68 -4 96
34 90 35 -5 44 -33 26 -83 l-16 -45 38 30 c37 30 37 32 32 84 -5 53 7 96 28
96 6 0 19 -5 30 -10z m1389 -28 c0 -7 -12 -34 -27 -59 -21 -37 -28 -42 -35
-29 -11 19 -4 45 25 93 15 25 22 31 28 21 5 -7 9 -19 9 -26z m-523 -6 c-3 -8
-1 -17 6 -19 9 -3 9 -8 -1 -18 -11 -12 -14 -12 -22 1 -9 13 -10 13 -11 0 0
-10 -3 -8 -9 5 -5 14 -3 24 8 33 21 16 35 15 29 -2z m-1250 -16 c14 -11 32
-20 40 -20 8 0 11 -4 8 -10 -11 -17 -58 -10 -97 14 -21 12 -35 26 -31 29 13
14 55 7 80 -13z m1789 -68 c-14 -21 -26 -44 -26 -51 0 -7 -4 -9 -10 -6 -18 11
-10 59 17 98 26 37 28 38 37 18 7 -16 3 -29 -18 -59z m-266 23 c0 -3 -7 -5
-17 -5 -9 0 -13 -3 -10 -7 4 -3 2 -12 -4 -20 -18 -21 -40 3 -32 36 9 36 22 42
44 20 11 -11 19 -21 19 -24z m-1555 1 c43 -23 44 -26 25 -36 -27 -14 -126 30
-108 48 17 17 31 15 83 -12z m1875 -20 c0 -11 -11 -34 -25 -52 -14 -18 -25
-38 -25 -44 0 -6 -4 -8 -10 -5 -18 11 -11 56 15 89 14 18 25 39 25 47 0 22 20
-12 20 -35z m-410 -61 c66 -51 155 -143 197 -205 45 -67 75 -130 69 -146 -3
-8 -2 -13 3 -9 11 6 36 -66 50 -140 7 -36 6 -54 -2 -64 -9 -12 -9 -13 1 -7 9
5 12 -11 12 -72 0 -43 -3 -82 -7 -86 -5 -4 -9 -22 -9 -39 -5 -87 -68 -267 -94
-267 -6 0 -8 -4 -5 -10 13 -21 -96 -157 -193 -240 -111 -96 -314 -173 -385
-146 -26 10 -21 12 63 29 49 9 115 28 146 42 177 78 340 262 405 457 13 40 26
75 29 78 8 8 11 48 13 180 2 152 -13 216 -82 353 -26 53 -43 97 -37 98 6 0 1
4 -12 9 -12 5 -26 18 -30 28 -10 25 -144 147 -209 190 -29 19 -53 39 -53 44 0
5 -5 6 -12 2 -7 -4 -8 -3 -4 4 8 13 57 -15 146 -83z m20 85 c0 -5 -4 -10 -10
-10 -5 0 -10 5 -10 10 0 6 5 10 10 10 6 0 10 -4 10 -10z m-1520 -44 c50 -23
51 -25 30 -36 -19 -10 -31 -8 -72 11 -45 21 -48 24 -32 36 22 16 13 17 74 -11z
m1918 -80 c-55 -73 -69 -33 -15 45 31 46 32 47 40 23 7 -20 3 -33 -25 -68z
m-1948 33 c71 -37 18 -55 -60 -20 -38 17 -40 20 -24 30 27 15 38 14 84 -10z
m1440 1 c0 -5 6 -10 14 -10 20 0 29 -30 11 -36 -8 -3 -19 -3 -25 1 -5 3 -10
-1 -10 -9 0 -22 -13 -20 -28 4 -14 23 -8 40 14 40 8 0 12 5 9 10 -3 6 -1 10 4
10 6 0 11 -4 11 -10z m565 -38 c-6 -18 -61 -82 -70 -82 -16 0 0 52 27 88 26
34 34 39 41 27 4 -9 6 -23 2 -33z m-2029 -8 c35 -15 37 -17 20 -29 -13 -10
-26 -11 -49 -3 -18 5 -42 12 -55 15 -18 4 -20 8 -11 19 15 18 48 18 95 -2z
m2064 -27 c0 -10 -18 -37 -40 -60 l-39 -42 -1 31 c0 21 9 39 30 59 17 16 30
36 30 44 0 14 1 14 10 1 5 -8 10 -23 10 -33z m-258 16 c22 -20 23 -33 2 -33
-9 0 -12 5 -8 12 4 7 3 8 -4 4 -6 -4 -9 -13 -6 -20 7 -18 -27 -30 -37 -14 -4
7 -3 18 2 24 7 9 5 14 -8 17 -15 3 -14 6 7 15 33 14 31 14 52 -5z m-1822 -39
c25 -5 28 -9 19 -20 -14 -17 -59 -18 -96 -2 -38 17 -39 18 -23 29 14 9 25 8
100 -7z m2069 -80 c-18 -19 -37 -34 -41 -34 -20 0 -5 42 30 82 l37 44 3 -29
c3 -22 -5 -38 -29 -63z m-432 42 c-4 -10 -1 -13 7 -10 17 7 30 -27 15 -37 -7
-4 -19 -3 -28 1 -9 5 -24 11 -33 14 -24 7 -22 21 5 34 31 15 40 14 34 -2z
m-1667 -10 c35 -13 35 -13 12 -25 -32 -17 -128 5 -110 26 13 16 52 16 98 -1z
m2121 -86 l-41 -38 0 26 c0 17 14 40 38 65 l37 38 3 -27 c3 -21 -5 -35 -37
-64z m-1111 46 c0 -13 -7 -26 -15 -30 -8 -3 -15 -17 -15 -31 0 -14 7 -28 15
-31 11 -5 15 -22 15 -70 l0 -64 -125 0 c-77 0 -125 4 -125 10 0 6 47 10 120
10 119 0 120 0 120 23 0 16 -9 28 -25 35 -58 26 -68 112 -18 152 34 27 53 25
53 -4z m81 -5 c41 -42 40 -84 -6 -127 -19 -18 -35 -42 -35 -53 0 -20 5 -21
115 -21 70 0 115 -4 115 -10 0 -6 -48 -10 -125 -10 l-125 0 0 60 c0 47 4 64
20 80 16 16 18 25 10 40 -6 11 -15 20 -20 20 -6 0 -10 11 -10 25 0 34 24 32
61 -4z m-1122 -5 c28 -10 31 -14 18 -24 -10 -9 -32 -10 -71 -6 -54 7 -56 8
-40 25 19 22 44 23 93 5z m1681 4 c0 -5 -2 -10 -4 -10 -3 0 -8 5 -11 10 -3 6
-1 10 4 10 6 0 11 -4 11 -10z m529 -51 c-4 -9 -24 -28 -44 -43 l-35 -27 0 23
c0 31 72 100 81 78 4 -8 3 -22 -2 -31z m-219 -26 c0 -3 -6 -3 -14 0 -8 3 -17
-1 -20 -9 -6 -16 -35 -19 -37 -4 -1 6 -2 14 -3 19 0 5 -5 13 -9 17 -5 5 7 13
25 20 30 10 34 9 45 -14 7 -13 13 -27 13 -29z m-2006 28 c28 -6 29 -7 12 -24
-15 -14 -28 -16 -69 -11 -29 4 -53 8 -55 9 -2 2 4 10 13 19 17 16 47 19 99 7z
m2256 -29 c0 -23 -16 -43 -57 -71 l-33 -22 0 25 c0 16 11 32 33 47 17 13 34
27 35 31 7 15 22 8 22 -10z m-2252 -27 c2 -2 -4 -10 -13 -19 -12 -12 -31 -16
-70 -14 -46 3 -52 5 -44 20 5 9 14 18 21 21 12 4 99 -2 106 -8z m1819 -23 c17
-18 6 -35 -18 -29 -11 3 -19 1 -19 -4 0 -21 -28 -7 -33 16 -3 20 1 29 22 40
19 10 27 10 30 2 2 -6 10 -18 18 -25z m448 -21 c-3 -12 -16 -26 -28 -32 -12
-6 -32 -21 -44 -32 l-23 -20 0 26 c0 18 11 34 38 54 20 15 39 32 41 36 7 18
23 -12 16 -32z m-2285 -10 c0 -19 -29 -31 -77 -31 -29 0 -53 3 -53 8 0 12 14
29 28 33 19 6 102 -2 102 -10z m2300 -35 c0 -18 -12 -33 -45 -55 l-45 -30 0
24 c0 17 13 32 43 53 23 17 43 31 45 31 1 1 2 -10 2 -23z m-2320 -17 c0 -18
-38 -34 -81 -34 -27 0 -49 2 -49 4 0 3 7 13 16 23 13 13 29 17 65 15 27 -1 49
-5 49 -8z m2336 -43 c-4 -15 -23 -34 -51 -49 -42 -24 -45 -24 -45 -7 0 21 8
29 60 64 40 27 45 26 36 -8z m-1307 18 l61 -7 0 -78 c0 -46 4 -79 10 -79 6 0
10 35 10 85 l0 85 125 0 c104 0 125 -2 125 -15 0 -12 -19 -15 -111 -15 l-111
0 6 -31 c3 -17 6 -42 6 -56 0 -20 3 -22 19 -13 11 5 23 10 28 10 4 -1 -4 -8
-20 -16 -15 -8 -31 -13 -36 -10 -4 3 -8 -1 -8 -9 0 -19 -2 -19 51 9 25 13 40
27 33 29 -6 3 94 5 223 4 129 -1 246 2 260 6 l25 8 -25 -16 -25 -16 25 6 c24
6 24 5 6 -9 -11 -9 -23 -16 -28 -16 -4 0 -7 -5 -5 -12 1 -7 -11 -15 -28 -19
-16 -4 -24 -7 -17 -8 20 -2 4 -21 -18 -21 -10 0 -20 -6 -23 -14 -7 -18 -51
-25 -90 -15 -18 4 -65 17 -105 27 -40 10 -71 20 -68 22 2 3 -30 6 -71 8 l-74
3 28 -36 c17 -22 58 -51 105 -75 68 -34 74 -39 52 -44 -14 -4 -29 -4 -34 -1
-5 3 -22 -1 -37 -8 -26 -14 -27 -14 -45 23 -19 38 -40 50 -88 50 -17 0 -21 -3
-12 -9 9 -5 16 -58 24 -165 12 -173 21 -195 82 -222 30 -13 30 -13 5 -14 -26
0 -104 44 -128 73 -9 12 -16 63 -21 165 l-7 147 -1 -151 -2 -152 41 -37 c73
-65 140 -80 219 -49 65 26 97 115 36 100 l-25 -6 22 60 22 61 14 -33 c8 -18
14 -54 14 -80 1 -77 -26 -99 -210 -168 -45 -17 -92 -39 -104 -49 -24 -20 -3
-23 -216 39 -80 23 -133 61 -153 111 -9 21 -16 27 -23 20 -36 -36 -37 40 -2
92 30 43 49 50 35 11 -6 -14 -10 -44 -10 -66 0 -35 6 -47 40 -79 36 -34 115
-69 157 -69 22 0 14 19 -14 34 l-28 15 36 1 c24 0 43 8 58 24 20 22 23 36 28
186 l6 162 -21 -11 c-28 -15 -33 -14 -25 5 5 14 -1 16 -40 13 -25 -2 -43 -1
-40 4 2 4 22 7 43 7 21 0 42 5 45 10 3 6 -3 10 -14 10 -11 0 -22 4 -26 10 -6
10 -90 8 -101 -3 -4 -4 3 -7 15 -7 18 0 20 -2 9 -14 -18 -19 -36 -9 -43 25 -8
35 6 56 50 75 30 14 30 14 -20 13 -27 -1 -58 2 -67 6 -11 4 -18 3 -18 -4 0 -6
8 -11 18 -12 9 -1 -23 -14 -71 -30 -77 -25 -94 -28 -128 -19 -22 6 -37 15 -34
19 2 5 -10 11 -28 15 -22 5 -28 9 -19 15 10 6 3 10 -20 15 -23 5 -29 9 -20 15
10 6 7 10 -13 15 -18 5 -25 12 -21 21 3 8 0 15 -6 15 -6 0 -9 2 -7 4 2 2 31 0
64 -5 33 -5 148 -9 255 -9 189 0 196 -1 239 -25 23 -14 45 -25 47 -25 2 0 4
29 4 64 0 75 0 76 -127 76 -67 0 -83 3 -83 15 0 17 77 20 189 9z m-1039 -26
c0 -17 -48 -38 -87 -38 -47 0 -54 11 -23 33 21 14 110 18 110 5z m2122 -33 c6
-30 -1 -39 -19 -24 -9 9 -13 8 -13 0 0 -6 -9 -11 -20 -11 -11 0 -20 7 -20 15
0 8 5 15 11 15 8 0 8 5 -1 15 -11 13 -7 15 23 15 29 0 35 -4 39 -25z m-197
-15 c0 -16 -3 -30 -7 -30 -5 0 -13 0 -19 0 -5 0 -7 5 -4 10 3 6 1 10 -4 10 -6
0 -11 -7 -11 -16 0 -8 -4 -12 -10 -9 -14 9 -12 52 3 58 6 3 21 6 32 6 17 1 21
-5 20 -29z m423 -25 c-7 -7 -30 -20 -51 -29 -38 -15 -38 -15 -35 6 2 13 20 32
48 48 43 25 45 26 48 7 2 -11 -2 -25 -10 -32z m-2358 28 c-1 -22 -23 -35 -77
-47 l-61 -12 11 23 c11 24 25 30 87 36 19 2 36 5 38 5 1 1 2 -1 2 -5z m2368
-78 c-7 -7 -30 -20 -50 -29 -36 -14 -38 -14 -38 4 0 26 93 76 98 53 2 -9 -2
-21 -10 -28z m-2388 5 c-11 -20 -26 -26 -87 -33 -21 -2 -33 1 -33 9 0 18 22
32 60 37 73 8 72 9 60 -13z m2398 -66 c-21 -21 -98 -44 -98 -29 0 17 29 41 70
57 31 13 35 13 38 0 2 -8 -2 -20 -10 -28z m-2407 7 c-7 -12 -26 -23 -49 -26
-20 -4 -45 -9 -54 -12 -21 -5 -23 6 -5 31 10 14 103 38 115 30 2 -1 -1 -11 -7
-23z m2420 -50 c-6 -11 -26 -24 -44 -29 -17 -6 -40 -13 -49 -17 -13 -5 -15 -2
-11 15 4 14 20 28 42 36 20 8 43 18 51 23 19 11 24 -2 11 -28z m-2421 12 c0
-16 -35 -43 -57 -43 -13 0 -33 -5 -44 -10 -21 -12 -26 3 -10 28 12 20 111 42
111 25z m0 -53 c0 -18 -39 -50 -61 -50 -11 0 -29 -5 -40 -10 -14 -8 -19 -7
-19 2 0 26 20 43 62 55 56 15 58 15 58 3z m1950 -5 c-9 -10 -9 -15 -1 -15 6 0
11 -9 11 -20 0 -20 -24 -28 -35 -10 -3 5 -12 7 -20 3 -11 -4 -15 2 -15 20 0
27 7 32 47 35 22 2 24 0 13 -13z m202 -10 c6 -30 -1 -39 -19 -24 -9 9 -13 8
-13 0 0 -6 -9 -11 -20 -11 -21 0 -27 24 -9 36 8 4 7 9 -2 15 -9 6 -2 9 22 9
31 0 37 -4 41 -25z m278 11 c0 -20 -21 -34 -73 -50 -45 -13 -45 -13 -38 8 5
12 26 28 52 38 55 21 59 21 59 4z m-2439 -64 c-6 -11 -28 -26 -48 -33 -21 -6
-44 -16 -50 -22 -20 -15 -16 28 3 44 15 13 94 38 102 33 2 -1 -1 -11 -7 -22z
m2430 -15 c-7 -7 -33 -17 -60 -23 -45 -10 -48 -9 -43 9 5 18 17 25 77 44 23 7
31 6 33 -5 2 -8 -1 -19 -7 -25z m-2421 -27 c0 -14 -38 -50 -52 -50 -7 0 -26
-7 -41 -15 -27 -14 -28 -14 -21 8 9 30 14 34 59 51 49 18 55 19 55 6z m2430
-2 c0 -27 -19 -40 -65 -49 -27 -5 -51 -7 -53 -4 -11 11 33 45 57 45 14 0 33 5
41 10 19 12 20 12 20 -2z m-2434 -66 c-8 -23 -106 -68 -106 -48 0 23 25 45 65
59 47 15 49 15 41 -11z m2434 10 c0 -22 -30 -42 -77 -50 l-51 -9 10 23 c8 16
23 26 47 30 20 3 41 7 46 9 18 6 25 5 25 -3z m-913 -29 c27 -37 49 -82 57
-117 7 -29 7 -29 -18 -13 -24 16 -25 16 -31 -12 -12 -55 -80 -98 -180 -114
-38 -7 -37 -6 15 16 78 31 115 55 134 87 20 35 21 99 2 145 -18 42 -8 45 21 8z
m381 4 c6 3 12 0 12 -6 0 -6 -8 -11 -17 -11 -15 0 -15 -2 -4 -9 18 -12 6 -42
-14 -35 -8 3 -15 14 -15 23 0 13 -2 13 -9 2 -5 -7 -14 -11 -20 -7 -19 12 18
57 38 47 9 -4 22 -6 29 -4z m-1900 -48 c-7 -11 -32 -29 -56 -39 l-43 -20 3 23
c2 15 19 30 53 48 52 27 67 23 43 -12z m892 -56 c0 -2 -7 -3 -15 -3 -8 0 -15
-6 -15 -14 0 -20 47 -74 71 -81 11 -4 18 -9 16 -12 -10 -9 -65 27 -96 63 -35
39 -36 54 -11 119 l12 30 19 -50 c10 -27 19 -51 19 -52z m1519 42 c-20 -19
-109 -26 -109 -9 0 19 19 28 70 34 47 5 61 -3 39 -25z m-324 -25 c-8 -30 -16
-39 -22 -24 -2 6 -15 9 -28 6 -18 -3 -25 0 -25 12 0 9 6 19 14 22 8 3 12 12
10 19 -5 12 0 12 26 2 26 -10 30 -15 25 -37z m-2078 -14 c-3 -7 -26 -25 -52
-39 l-46 -26 3 27 c2 21 13 32 48 49 43 21 58 17 47 -11z m2406 3 c-7 -24 -40
-39 -89 -39 -64 0 -29 41 45 51 25 3 47 7 48 8 0 0 -1 -8 -4 -20z m-2415 -81
c-12 -9 -27 -18 -32 -18 -5 0 -18 -7 -28 -17 -17 -15 -18 -15 -18 3 0 28 13
44 56 68 38 22 39 22 42 2 2 -12 -6 -27 -20 -38z m2400 20 c-12 -18 -28 -24
-71 -28 -55 -5 -56 -5 -43 15 10 14 29 22 67 26 30 3 56 6 58 7 2 1 -3 -8 -11
-20z m-2358 -17 c0 -24 -16 -43 -56 -71 l-44 -29 0 24 c0 17 13 32 43 53 45
33 57 37 57 23z m1723 -25 c21 -16 22 -30 1 -22 -9 3 -12 2 -9 -5 4 -5 4 -16
1 -24 -6 -18 -36 -9 -36 11 0 8 -7 14 -15 14 -8 0 -15 3 -15 6 0 9 33 33 45
33 6 0 18 -6 28 -13z m627 -7 c0 -3 -8 -13 -18 -22 -14 -13 -29 -16 -66 -11
-45 7 -46 8 -30 25 13 14 29 18 65 17 27 -1 49 -5 49 -9z m-2363 -74 c-73 -60
-67 -58 -67 -27 0 22 10 35 43 58 40 29 42 29 45 10 3 -12 -6 -28 -21 -41z
m2343 5 c-9 -17 -21 -20 -71 -20 -57 0 -59 1 -49 20 9 17 21 20 71 20 57 0 59
-1 49 -20z m-2300 -16 c0 -9 -19 -34 -42 -55 -34 -31 -44 -36 -51 -24 -11 20
2 40 43 70 42 29 50 30 50 9z m1846 -13 c21 -16 22 -20 9 -31 -8 -7 -12 -16
-9 -21 3 -5 -2 -9 -10 -9 -9 0 -16 5 -16 10 0 6 -9 10 -19 10 -11 0 -22 4 -25
9 -8 12 21 34 33 26 7 -3 8 0 5 9 -8 21 3 20 32 -3z m444 -12 c0 -22 -42 -36
-81 -28 -22 5 -45 7 -51 3 -6 -4 -5 2 2 15 9 19 19 21 71 20 32 -1 59 -6 59
-10z m-2270 -30 c0 -6 -20 -31 -45 -57 l-45 -46 0 31 c0 24 9 38 37 61 36 29
53 32 53 11z m1475 -6 c16 -23 16 -25 1 -20 -11 5 -16 1 -16 -14 0 -14 -5 -19
-17 -17 -10 2 -17 11 -17 21 1 9 -4 17 -12 17 -21 0 -17 14 9 26 32 17 33 16
52 -13z m739 -11 c38 -7 39 -8 22 -25 -19 -18 -30 -20 -90 -9 -38 7 -39 8 -22
25 19 18 30 20 90 9z m-2194 -33 c0 -12 -70 -89 -81 -89 -5 0 -9 11 -9 24 0
16 13 34 37 54 36 29 53 32 53 11z m970 -100 c0 -79 -2 -90 -16 -85 -9 3 -18
6 -20 6 -2 0 -4 38 -4 85 0 78 2 85 20 85 19 0 20 -7 20 -91z m70 7 c0 -65 -3
-85 -15 -90 -37 -14 -45 3 -45 90 l0 84 30 0 30 0 0 -84z m70 0 c0 -65 -3 -85
-15 -90 -37 -14 -45 3 -45 90 l0 84 30 0 30 0 0 -84z m50 0 c0 -81 -6 -96 -36
-96 -2 0 -4 41 -4 90 0 83 1 90 20 90 18 0 20 -7 20 -84z m1014 76 c38 -7 39
-8 22 -25 -20 -20 -35 -21 -87 -5 -31 9 -37 14 -28 25 13 14 34 15 93 5z
m-2193 -96 l-41 -41 0 30 c0 20 11 41 38 68 l37 38 3 -27 c3 -21 -6 -37 -37
-68z m939 14 c0 -40 -4 -70 -10 -70 -6 0 -10 30 -10 70 0 40 4 70 10 70 6 0
10 -30 10 -70z m270 0 c0 -40 -4 -70 -10 -70 -6 0 -10 30 -10 70 0 40 4 70 10
70 6 0 10 -30 10 -70z m-1184 -60 c-31 -35 -36 -37 -41 -20 -7 23 -1 34 40 81
l30 35 3 -29 c3 -21 -6 -38 -32 -67z m2161 86 c20 -1 20 -2 6 -18 -19 -21 -51
-23 -90 -6 -38 17 -39 18 -23 29 8 5 31 7 50 3 19 -3 45 -7 57 -8z m-606 -27
c9 -17 7 -24 -10 -40 -24 -23 -31 -24 -31 -4 0 8 -7 15 -16 15 -9 0 -14 7 -12
18 2 9 11 16 21 16 9 -1 17 2 17 7 0 17 19 9 31 -12z m-681 -18 c0 -5 -15 -15
-32 -22 -18 -7 -52 -31 -76 -53 -23 -21 -45 -36 -49 -32 -11 11 48 65 101 91
57 28 56 28 56 16z m428 -40 c37 -26 66 -60 59 -68 -4 -3 -26 12 -49 33 -24
22 -58 46 -75 53 -18 7 -33 17 -33 22 0 11 62 -14 98 -40z m821 35 c30 -11 31
-13 17 -25 -14 -12 -26 -12 -71 -1 -53 13 -62 19 -48 33 10 11 64 7 102 -7z
m-2091 -85 c-27 -33 -34 -37 -39 -23 -9 24 -1 42 35 80 l31 33 3 -25 c2 -18
-7 -38 -30 -65z m2051 38 c32 -10 39 -15 30 -26 -15 -17 -40 -17 -90 4 -39 15
-40 17 -23 30 10 7 24 11 30 9 7 -3 30 -10 53 -17z m-1989 -19 c0 -20 -49 -99
-61 -100 -4 0 -9 9 -12 19 -3 12 7 37 26 65 32 45 47 50 47 16z m1965 -29 l40
-18 -25 -12 c-21 -10 -33 -8 -73 9 -26 12 -45 25 -42 31 9 14 56 9 100 -10z
m-1935 -16 c0 -29 -48 -107 -61 -99 -17 10 -9 46 19 85 32 45 42 49 42 14z
m1885 -25 c22 -10 44 -16 50 -13 5 2 0 -5 -13 -16 -19 -16 -28 -18 -52 -9 -17
5 -33 14 -36 19 -3 5 -15 9 -27 9 -22 1 -22 1 -3 15 25 19 32 18 81 -5z
m-1855 -14 c0 -14 -11 -46 -25 -72 -24 -44 -25 -45 -34 -23 -9 26 -6 36 24 86
24 39 35 42 35 9z m40 -48 c0 -9 -11 -38 -25 -63 l-25 -47 -11 26 c-10 22 -8
31 15 66 14 22 26 45 26 52 0 20 20 -14 20 -34z m1789 18 c43 -23 44 -24 22
-35 -18 -10 -28 -9 -57 8 -19 12 -43 21 -52 21 -15 1 -15 2 2 15 26 19 32 19
85 -9z m-1756 -54 c2 -26 -35 -103 -48 -99 -19 7 -16 37 7 86 23 48 38 53 41
13z m1713 12 c45 -26 50 -44 12 -44 -16 0 -73 27 -98 47 -5 5 21 23 33 23 5 0
28 -12 53 -26z m-1676 -53 c0 -16 -9 -48 -19 -71 -18 -41 -19 -42 -31 -20 -10
18 -8 31 12 75 24 56 38 62 38 16z m1647 10 c42 -28 41 -41 -3 -41 -22 0 -96
57 -82 63 26 11 44 6 85 -22z m-1607 -45 c0 -13 -8 -42 -18 -65 -14 -31 -21
-38 -30 -29 -17 17 -15 31 10 82 22 47 38 51 38 12z m1568 4 l44 -29 -28 -7
c-16 -4 -34 -2 -43 5 -9 6 -28 19 -43 30 -16 10 -25 21 -21 24 14 14 50 5 91
-23z m-1528 -43 c0 -18 -6 -49 -13 -69 -10 -29 -16 -35 -25 -26 -17 17 -15 46
5 95 20 47 33 47 33 0z m1479 13 c41 -30 46 -50 13 -50 -24 0 -106 67 -90 73
25 10 35 7 77 -23z m-1446 -98 c-13 -41 -19 -49 -30 -40 -17 14 -16 31 4 89
17 47 18 48 30 25 10 -19 9 -33 -4 -74z m1408 56 c28 -23 36 -34 27 -40 -22
-14 -34 -9 -78 32 -43 40 -43 40 -16 40 16 0 44 -14 67 -32z m-1351 -37 c0 -9
-6 -35 -13 -59 -12 -38 -15 -42 -26 -28 -8 10 -11 27 -7 46 3 16 9 44 12 62 6
29 8 30 20 13 8 -10 14 -26 14 -34z m1311 5 c34 -31 36 -36 19 -41 -24 -8 -47
5 -83 44 l-29 31 27 0 c17 0 42 -13 66 -34z m-1277 -78 l-9 -63 -18 26 c-15
22 -15 32 -5 77 11 45 15 50 27 37 11 -11 12 -27 5 -77z m1226 48 c21 -19 36
-37 32 -40 -15 -15 -45 -3 -81 34 -39 39 -39 40 -14 40 15 0 41 -14 63 -34z
m-1176 -78 l-9 -63 -18 26 c-15 23 -16 32 -5 78 10 45 13 50 26 37 12 -12 13
-27 6 -78z m1132 52 l43 -40 -26 -6 c-23 -6 -32 -1 -60 32 -18 21 -33 42 -33
47 0 19 37 3 76 -33z m-1080 -44 c-3 -12 -6 -37 -6 -56 l0 -34 -20 20 c-18 18
-20 28 -14 79 l7 58 19 -23 c12 -14 17 -32 14 -44z m1033 14 c25 -32 29 -41
17 -46 -16 -6 -56 12 -56 25 0 4 -11 20 -25 35 l-24 26 28 0 c20 0 36 -11 60
-40z m-979 -24 l10 -31 -3 32 c-3 28 -1 31 15 22 15 -8 18 -22 18 -76 0 -65 0
-66 -20 -48 -11 10 -21 30 -21 44 -1 22 -3 21 -8 -8 -6 -32 -7 -33 -23 -14
-22 24 -14 141 8 122 8 -6 18 -26 24 -43z m934 -1 l37 -45 -28 0 c-23 0 -36 9
-61 45 -32 45 -32 45 -8 45 16 0 36 -15 60 -45z m-55 -20 c16 -24 26 -47 21
-50 -16 -10 -40 8 -70 51 l-29 44 24 0 c17 0 32 -13 54 -45z m-782 -56 c-1
-27 -5 -49 -9 -49 -19 0 -35 48 -30 95 l4 49 19 -22 c13 -17 18 -37 16 -73z
m737 33 c25 -39 20 -60 -11 -44 -21 12 -66 86 -56 95 11 11 43 -13 67 -51z
m-705 24 c7 -8 14 -40 16 -70 3 -52 2 -55 -16 -45 -10 5 -19 17 -20 27 -6 102
-3 116 20 88z m646 -36 c20 -28 28 -48 22 -52 -18 -11 -44 10 -71 58 -25 45
-25 45 -4 42 12 -2 36 -23 53 -48z m-593 23 c15 -17 30 -123 17 -123 -18 0
-37 42 -41 88 -3 56 0 62 24 35z m508 7 c10 -5 29 -30 43 -55 22 -39 23 -45 9
-45 -26 0 -38 12 -61 59 -27 58 -27 60 9 41z m-456 -22 c7 -13 16 -44 19 -70
4 -44 3 -47 -15 -37 -22 12 -25 19 -31 82 -5 51 4 60 27 25z m401 16 c9 -4 27
-29 40 -56 l24 -49 -22 3 c-15 2 -30 20 -48 56 -27 52 -26 58 6 46z m-357 -13
c7 -4 17 -21 22 -37 l10 -29 -3 33 c-2 20 1 32 9 32 18 0 32 -22 39 -65 4 -22
12 -46 18 -52 12 -16 2 -17 -24 -2 -11 6 -24 20 -30 32 -9 20 -9 20 -6 -5 5
-31 -13 -38 -32 -14 -13 15 -32 116 -22 116 3 0 12 -4 19 -9z m307 3 c14 -6
69 -103 62 -110 -2 -2 -12 -1 -23 2 -12 3 -30 27 -45 60 -26 54 -25 59 6 48z
m-196 -18 c16 -18 40 -116 30 -116 -19 0 -49 41 -49 66 0 14 -5 34 -10 45 -8
15 -7 19 3 19 8 0 20 -6 26 -14z m51 -6 c11 -11 20 -28 20 -37 0 -10 7 -31 15
-46 14 -27 14 -28 -8 -22 -29 9 -47 33 -47 63 0 13 -5 32 -10 43 -14 26 4 25
30 -1z m48 12 c7 -5 21 -32 32 -61 l19 -52 -22 3 c-16 2 -26 15 -37 48 -8 25
-19 51 -23 58 -9 14 11 16 31 4z m63 -12 c32 -62 45 -100 35 -100 -23 0 -53
30 -59 57 -3 15 -9 36 -13 47 -5 14 -3 17 11 15 10 -2 21 -11 26 -19z"/>
<path d="M4772 3927 l-2 -69 -32 6 -33 6 34 -13 c19 -7 50 -31 69 -53 l35 -39
-28 39 c-22 31 -25 40 -14 47 11 7 11 9 -3 9 -14 0 -18 12 -21 68 l-3 67 -2
-68z"/>
<path d="M4734 3803 c-15 -20 -23 -33 -16 -29 13 8 56 66 49 66 -3 0 -17 -17
-33 -37z"/>
<path d="M3914 3155 c-11 -29 2 -33 29 -9 l28 24 -26 0 c-14 0 -28 -7 -31 -15z"/>
<path d="M3933 3070 c-14 -6 -23 -18 -23 -31 0 -12 1 -20 3 -18 1 2 13 16 26
32 27 29 27 30 -6 17z"/>
<path d="M3973 2764 c-3 -8 -1 -25 5 -37 l11 -22 0 22 c1 12 4 28 7 37 3 9 1
16 -5 16 -7 0 -14 -7 -18 -16z"/>
<path d="M4188 3133 c6 -2 18 -2 25 0 6 3 1 5 -13 5 -14 0 -19 -2 -12 -5z"/>
<path d="M4591 3136 c15 -13 69 -35 69 -27 0 5 -14 14 -31 20 -33 11 -45 14
-38 7z"/>
<path d="M5126 3125 c-11 -8 -16 -15 -10 -15 5 0 18 7 28 15 11 8 16 15 10 15
-5 0 -18 -7 -28 -15z"/>
<path d="M5298 3133 c7 -3 16 -2 19 1 4 3 -2 6 -13 5 -11 0 -14 -3 -6 -6z"/>
<path d="M4248 3103 c7 -3 16 -2 19 1 4 3 -2 6 -13 5 -11 0 -14 -3 -6 -6z"/>
<path d="M4420 3100 c-13 -8 -13 -10 2 -10 9 0 20 5 23 10 8 13 -5 13 -25 0z"/>
<path d="M5080 3100 c0 -6 7 -10 15 -10 8 0 15 2 15 4 0 2 -7 6 -15 10 -8 3
-15 1 -15 -4z"/>
<path d="M5248 3103 c7 -3 16 -2 19 1 4 3 -2 6 -13 5 -11 0 -14 -3 -6 -6z"/>
<path d="M5035 3090 c-16 -7 -17 -9 -3 -9 9 -1 20 4 23 9 7 11 7 11 -20 0z"/>
<path d="M4313 3083 c9 -2 25 -2 35 0 9 3 1 5 -18 5 -19 0 -27 -2 -17 -5z"/>
<path d="M5173 3083 c9 -2 25 -2 35 0 9 3 1 5 -18 5 -19 0 -27 -2 -17 -5z"/>
<path d="M4358 3063 c7 -3 16 -2 19 1 4 3 -2 6 -13 5 -11 0 -14 -3 -6 -6z"/>
<path d="M5138 3063 c7 -3 16 -2 19 1 4 3 -2 6 -13 5 -11 0 -14 -3 -6 -6z"/>
<path d="M4298 3053 c7 -3 16 -2 19 1 4 3 -2 6 -13 5 -11 0 -14 -3 -6 -6z"/>
<path d="M5193 3053 c9 -2 23 -2 30 0 6 3 -1 5 -18 5 -16 0 -22 -2 -12 -5z"/>
<path d="M4633 3035 c0 -12 3 -12 16 -3 9 7 18 14 20 15 2 2 -5 3 -16 3 -11 0
-20 -7 -20 -15z"/>
<path d="M4690 2970 c0 -5 4 -10 9 -10 5 0 18 -3 28 -7 17 -6 17 -6 1 10 -18
19 -38 22 -38 7z"/>
<path d="M4747 2920 c-3 -11 -1 -20 4 -20 5 0 9 9 9 20 0 11 -2 20 -4 20 -2 0
-6 -9 -9 -20z"/>
<path d="M8710 4807 c0 -2 15 -16 33 -33 l32 -29 -29 33 c-28 30 -36 37 -36
29z"/>
<path d="M7740 4780 c-6 -11 -8 -20 -6 -20 3 0 10 9 16 20 6 11 8 20 6 20 -3
0 -10 -9 -16 -20z"/>
<path d="M7474 4728 l-19 -23 23 19 c12 11 22 21 22 23 0 8 -8 2 -26 -19z"/>
<path d="M7696 4695 c-9 -26 -7 -32 5 -12 6 10 9 21 6 23 -2 3 -7 -2 -11 -11z"/>
<path d="M8825 4690 c10 -11 20 -20 23 -20 3 0 -3 9 -13 20 -10 11 -20 20 -23
20 -3 0 3 -9 13 -20z"/>
<path d="M7439 4683 c-13 -16 -12 -17 4 -4 9 7 17 15 17 17 0 8 -8 3 -21 -13z"/>
<path d="M8798 4603 c26 -50 48 -90 50 -88 5 4 -63 136 -82 160 -9 11 6 -21
32 -72z"/>
<path d="M7359 4653 c-13 -16 -12 -17 4 -4 16 13 21 21 13 21 -2 0 -10 -8 -17
-17z"/>
<path d="M7671 4624 c-5 -22 -13 -51 -16 -66 -4 -17 -15 -28 -28 -31 -21 -4
-21 -4 -1 -6 20 -1 20 -4 12 -67 -5 -36 -8 -89 -6 -117 2 -37 -1 -56 -12 -64
-13 -11 -13 -12 0 -13 10 0 22 -25 36 -73 11 -39 24 -79 28 -88 6 -14 -4 -15
-79 -11 -81 4 -96 0 -77 -24 4 -5 -3 1 -16 13 -23 23 -49 32 -37 13 5 -9 -16
-14 -52 -13 -8 1 -13 -12 -14 -31 -1 -30 -1 -29 -11 9 -9 36 -5 177 6 265 3
19 -3 -5 -14 -54 -10 -49 -17 -115 -15 -145 3 -46 3 -50 -4 -21 l-8 35 -3 -30
c-1 -16 -1 -40 -1 -51 1 -12 -5 -24 -13 -27 -11 -5 -16 5 -20 46 -3 29 -8 68
-10 87 -2 19 -2 -21 0 -90 3 -69 7 -143 9 -165 l5 -40 -15 30 c-8 17 -14 24
-15 16 0 -15 47 -101 56 -101 2 0 0 10 -7 21 -14 27 -23 141 -9 119 12 -19 12
-13 1 28 -8 25 -7 32 5 32 10 0 14 -12 14 -37 1 -32 2 -35 11 -20 6 10 9 27 6
38 -9 34 2 20 24 -30 11 -27 29 -57 40 -67 23 -21 23 -17 3 31 -8 20 -14 51
-12 68 2 25 9 32 33 38 41 11 127 17 143 12 22 -9 12 -23 -17 -23 -40 0 -52
-46 -30 -122 9 -36 12 -38 47 -37 l37 2 -35 6 c-37 6 -54 36 -29 52 9 5 17 -1
26 -19 l12 -27 -5 27 c-7 34 23 43 48 13 18 -21 20 -18 20 33 0 16 1 17 5 4 3
-13 13 -18 38 -18 33 0 35 2 35 34 0 28 3 32 13 23 11 -8 14 -7 14 7 0 24 -17
44 -33 38 -23 -9 -79 101 -98 191 -6 25 -4 32 11 36 16 4 16 5 1 6 -10 0 -20
12 -24 27 -10 40 4 195 26 280 11 43 18 79 16 82 -3 2 -9 -13 -15 -34z"/>
<path d="M7329 4613 c-13 -16 -12 -17 4 -4 9 7 17 15 17 17 0 8 -8 3 -21 -13z"/>
<path d="M8097 4570 c4 -15 2 -21 -4 -17 -11 7 -23 -25 -22 -53 1 -8 4 -4 8 9
13 49 28 32 44 -51 29 -153 29 -160 15 -169 -10 -7 -10 -9 0 -9 6 0 13 -10 13
-22 1 -21 2 -21 6 -3 3 11 10 26 17 34 8 11 8 13 -1 8 -8 -5 -14 7 -18 40 -13
94 -44 236 -54 246 -7 7 -8 2 -4 -13z"/>
<path d="M8244 4567 c3 -10 7 -42 7 -70 l2 -52 7 45 c5 32 3 52 -7 70 -8 14
-12 17 -9 7z"/>
<path d="M7712 4550 c0 -14 2 -19 5 -12 2 6 2 18 0 25 -3 6 -5 1 -5 -13z"/>
<path d="M8916 4547 c3 -10 9 -15 12 -12 3 3 0 11 -7 18 -10 9 -11 8 -5 -6z"/>
<path d="M7569 4513 c-24 -4 -57 -48 -45 -60 2 -2 7 5 11 17 4 13 18 23 36 27
16 3 29 9 29 14 0 5 -1 8 -2 8 -2 -1 -15 -4 -29 -6z"/>
<path d="M7697 4380 c-7 -119 -2 -186 18 -265 9 -38 28 -74 36 -69 6 3 5 11
-2 20 -6 8 -9 17 -6 20 3 4 0 13 -8 21 -8 8 -15 24 -16 36 0 12 -3 31 -6 42
-2 11 -6 49 -9 85 l-4 65 14 -71 c15 -81 26 -117 32 -111 2 2 -3 35 -12 73 -9
38 -19 119 -23 179 l-6 110 -8 -135z"/>
<path d="M8270 4505 c0 -5 5 -17 10 -25 5 -8 10 -10 10 -5 0 6 -5 17 -10 25
-5 8 -10 11 -10 5z"/>
<path d="M8042 4370 c-12 -63 -22 -124 -21 -135 0 -11 11 36 25 105 13 69 22
130 20 135 -1 6 -13 -42 -24 -105z"/>
<path d="M8860 4475 c0 -5 5 -17 10 -25 5 -8 10 -10 10 -5 0 6 -5 17 -10 25
-5 8 -10 11 -10 5z"/>
<path d="M8481 4444 c0 -11 3 -14 6 -6 3 7 2 16 -1 19 -3 4 -6 -2 -5 -13z"/>
<path d="M7331 4434 c0 -11 3 -14 6 -6 3 7 2 16 -1 19 -3 4 -6 -2 -5 -13z"/>
<path d="M7913 4385 c0 -38 2 -53 4 -32 2 20 2 52 0 70 -2 17 -4 1 -4 -38z"/>
<path d="M7506 4425 c-9 -26 -7 -32 5 -12 6 10 9 21 6 23 -2 3 -7 -2 -11 -11z"/>
<path d="M7216 4415 c-9 -26 -7 -32 5 -12 6 10 9 21 6 23 -2 3 -7 -2 -11 -11z"/>
<path d="M8261 4363 c-2 -40 -4 -76 -5 -80 -1 -5 -6 -38 -10 -75 -4 -37 -12
-70 -17 -73 -5 -4 -9 -15 -9 -26 0 -11 -7 -34 -16 -51 -9 -16 -11 -27 -5 -24
5 4 38 9 73 12 61 6 62 5 40 -11 -13 -9 -32 -15 -43 -12 -26 7 -31 -5 -39 -85
-4 -52 -3 -68 7 -68 9 0 11 8 7 24 -8 33 3 51 22 35 10 -8 14 -8 14 0 0 19 29
12 40 -9 6 -11 19 -20 30 -20 11 0 24 9 30 20 6 11 16 20 23 20 8 0 7 -4 -3
-10 -11 -8 -8 -9 12 -4 14 3 35 1 46 -5 25 -13 32 1 32 70 l0 49 33 -7 c17 -3
36 -9 40 -13 10 -9 -14 -69 -44 -112 l-22 -31 26 18 c15 9 27 14 27 9 0 -4 11
14 24 40 14 27 22 56 18 65 -5 14 -4 14 11 2 15 -12 17 -11 17 2 0 11 6 15 18
11 14 -5 14 -3 -2 10 -11 9 -24 16 -28 16 -5 0 -7 28 -4 63 5 64 3 62 -10 -8
-7 -40 -7 -40 -14 -10 -3 17 -2 46 3 67 6 24 5 43 -2 55 -8 15 -11 9 -13 -32
-1 -27 -2 -65 -1 -82 0 -18 -3 -30 -8 -28 -4 3 -10 -3 -12 -12 -3 -10 -6 5 -7
32 -3 39 -4 43 -7 18 -3 -25 -9 -33 -24 -33 -11 0 -19 7 -20 18 0 9 -10 -10
-22 -43 -20 -58 -21 -59 -28 -30 -4 17 -13 71 -20 120 l-13 90 -7 -108 c-4
-60 -10 -111 -12 -114 -3 -2 -8 31 -12 74 -4 43 -11 94 -15 113 -6 24 -7 13
-3 -32 l6 -68 -29 -2 c-16 0 -40 -2 -54 -2 -14 -1 -31 -5 -38 -9 -8 -5 -12 -2
-12 8 0 9 3 14 8 11 4 -2 23 -1 42 4 l35 8 -39 1 c-32 1 -37 4 -32 18 14 35
27 170 24 233 l-4 65 -3 -72z m156 -265 c-3 -8 -6 -5 -6 6 -1 11 2 17 5 13 3
-3 4 -12 1 -19z m-40 -120 c-3 -8 -6 -5 -6 6 -1 11 2 17 5 13 3 -3 4 -12 1
-19z m93 2 c0 -5 -2 -10 -4 -10 -3 0 -8 5 -11 10 -3 6 -1 10 4 10 6 0 11 -4
11 -10z m-107 -35 c-5 -13 -23 -22 -23 -11 0 15 14 35 21 31 4 -3 6 -12 2 -20z"/>
<path d="M7321 4394 c0 -11 3 -14 6 -6 3 7 2 16 -1 19 -3 4 -6 -2 -5 -13z"/>
<path d="M8492 4385 c0 -16 2 -22 5 -12 2 9 2 23 0 30 -3 6 -5 -1 -5 -18z"/>
<path d="M8890 4406 c0 -21 73 -138 116 -182 l46 -49 -51 64 c-27 35 -63 89
-80 120 -17 31 -31 52 -31 47z"/>
<path d="M7306 4339 c-8 -42 0 -50 9 -9 4 17 5 34 2 36 -2 3 -7 -10 -11 -27z"/>
<path d="M8321 4354 c0 -11 3 -14 6 -6 3 7 2 16 -1 19 -3 4 -6 -2 -5 -13z"/>
<path d="M8622 4335 c0 -16 2 -22 5 -12 2 9 2 23 0 30 -3 6 -5 -1 -5 -18z"/>
<path d="M8502 4270 c0 -78 1 -81 9 -39 5 28 5 63 0 85 -8 33 -9 26 -9 -46z"/>
<path d="M7163 4293 c-13 -19 -18 -31 -13 -28 13 8 13 -3 -4 -58 -8 -26 -11
-47 -7 -47 5 0 53 162 48 166 -1 1 -12 -14 -24 -33z"/>
<path d="M8331 4318 c-1 -10 -9 -18 -18 -18 -17 -1 -17 -1 0 -11 25 -15 34 -8
26 21 -4 16 -7 19 -8 8z"/>
<path d="M8572 4290 c0 -14 2 -19 5 -12 2 6 2 18 0 25 -3 6 -5 1 -5 -13z"/>
<path d="M9001 4284 c0 -11 3 -14 6 -6 3 7 2 16 -1 19 -3 4 -6 -2 -5 -13z"/>
<path d="M7292 4270 c0 -14 2 -19 5 -12 2 6 2 18 0 25 -3 6 -5 1 -5 -13z"/>
<path d="M7923 4255 c0 -22 2 -30 4 -17 2 12 2 30 0 40 -3 9 -5 -1 -4 -23z"/>
<path d="M8368 4283 c6 -2 18 -2 25 0 6 3 1 5 -13 5 -14 0 -19 -2 -12 -5z"/>
<path d="M8613 4225 c0 -27 2 -38 4 -22 2 15 2 37 0 50 -2 12 -4 0 -4 -28z"/>
<path d="M7548 4253 c7 -3 16 -2 19 1 4 3 -2 6 -13 5 -11 0 -14 -3 -6 -6z"/>
<path d="M1947 4233 c-4 -3 -7 -11 -7 -17 0 -6 5 -5 12 2 6 6 9 14 7 17 -3 3
-9 2 -12 -2z"/>
<path d="M7282 4200 c0 -19 2 -27 5 -17 2 9 2 25 0 35 -3 9 -5 1 -5 -18z"/>
<path d="M7771 4225 c-1 -10 41 -165 53 -200 6 -16 4 -15 -13 5 -11 14 -28 44
-37 68 -9 23 -19 41 -21 38 -7 -7 24 -74 57 -122 18 -25 34 -43 37 -40 3 3 14
-5 24 -17 11 -12 3 5 -16 37 -47 81 -45 104 3 30 34 -52 104 -121 167 -163 11
-8 0 4 -25 25 -108 92 -167 175 -210 297 -10 28 -19 48 -19 42z m73 -231 c3
-8 2 -12 -4 -9 -6 3 -10 10 -10 16 0 14 7 11 14 -7z"/>
<path d="M8523 4195 c0 -22 2 -30 4 -17 2 12 2 30 0 40 -3 9 -5 -1 -4 -23z"/>
<path d="M7931 4195 c-1 -29 34 -158 48 -181 12 -18 12 -18 6 1 -4 11 -18 61
-30 110 -13 50 -24 81 -24 70z"/>
<path d="M8013 4175 c0 -22 2 -30 4 -17 2 12 2 30 0 40 -3 9 -5 -1 -4 -23z"/>
<path d="M1950 4185 c0 -8 2 -15 4 -15 2 0 6 7 10 15 3 8 1 15 -4 15 -6 0 -10
-7 -10 -15z"/>
<path d="M7431 4174 c0 -11 3 -14 6 -6 3 7 2 16 -1 19 -3 4 -6 -2 -5 -13z"/>
<path d="M8950 4171 c0 -5 6 -14 13 -20 10 -8 14 -7 14 4 0 8 -6 16 -14 19 -7
3 -13 2 -13 -3z"/>
<path d="M8492 4145 c0 -16 2 -22 5 -12 2 9 2 23 0 30 -3 6 -5 -1 -5 -18z"/>
<path d="M8812 4145 c0 -16 2 -22 5 -12 2 9 2 23 0 30 -3 6 -5 -1 -5 -18z"/>
<path d="M1962 4145 c0 -11 4 -33 8 -50 7 -27 8 -27 8 -5 0 14 -4 36 -8 50 -6
20 -8 21 -8 5z"/>
<path d="M8159 4128 c-1 -18 -1 -41 0 -50 1 -10 -3 -18 -9 -18 -6 0 -8 -5 -5
-10 3 -6 0 -13 -9 -16 -8 -3 -17 -12 -20 -20 -4 -11 -2 -12 13 -5 10 6 21 8
24 5 6 -6 13 24 23 99 4 32 3 47 -5 47 -6 0 -12 -15 -12 -32z"/>
<path d="M8994 4145 c1 -8 8 -21 16 -28 12 -10 12 -9 1 6 -12 15 -11 17 10 18
22 0 23 1 4 9 -29 12 -33 12 -31 -5z"/>
<path d="M7131 4134 c0 -11 3 -14 6 -6 3 7 2 16 -1 19 -3 4 -6 -2 -5 -13z"/>
<path d="M7273 4100 c0 -30 2 -43 4 -27 2 15 2 39 0 55 -2 15 -4 2 -4 -28z"/>
<path d="M7422 4120 c0 -14 2 -19 5 -12 2 6 2 18 0 25 -3 6 -5 1 -5 -13z"/>
<path d="M9058 4133 c7 -3 16 -2 19 1 4 3 -2 6 -13 5 -11 0 -14 -3 -6 -6z"/>
<path d="M1547 4085 c3 -27 12 -86 19 -130 l14 -80 -6 70 c-3 39 -12 97 -19
130 -14 59 -14 59 -8 10z"/>
<path d="M8001 4058 c0 -42 2 -79 7 -81 4 -3 6 20 4 51 -5 98 -9 110 -11 30z"/>
<path d="M8923 4080 c-3 -62 -52 -195 -120 -328 -29 -58 -53 -108 -53 -111 0
-3 11 8 25 24 l25 30 -5 -35 c-5 -35 -5 -35 8 5 6 22 18 51 25 65 l13 25 -20
-25 c-25 -31 -26 -22 -4 25 15 31 18 34 25 18 6 -12 6 -8 3 10 -4 19 -2 26 5
22 6 -3 10 4 11 17 0 13 13 57 29 98 25 68 28 72 33 45 3 -21 4 -17 4 15 0 25
3 64 7 87 6 33 11 41 24 36 21 -8 13 1 -13 15 -19 9 -20 6 -22 -38z"/>
<path d="M7618 4113 c6 -2 18 -2 25 0 6 3 1 5 -13 5 -14 0 -19 -2 -12 -5z"/>
<path d="M7122 4085 c0 -16 2 -22 5 -12 2 9 2 23 0 30 -3 6 -5 -1 -5 -18z"/>
<path d="M8801 4074 c0 -11 3 -14 6 -6 3 7 2 16 -1 19 -3 4 -6 -2 -5 -13z"/>
<path d="M9012 4045 c0 -16 2 -22 5 -12 2 9 2 23 0 30 -3 6 -5 -1 -5 -18z"/>
<path d="M1988 3960 l5 -106 -46 -10 c-43 -10 -46 -10 -50 10 -4 20 -4 20 -6
-1 0 -13 -10 -28 -21 -35 -26 -16 -26 -32 -1 -18 18 9 20 6 24 -37 l3 -48 2
51 c2 46 5 53 26 58 13 3 32 9 41 13 16 5 17 1 12 -43 l-6 -49 11 45 c6 25 13
47 15 50 3 3 32 8 66 11 l62 7 -63 -2 -62 -1 -1 65 c0 36 -4 83 -8 105 -6 26
-7 3 -3 -65z"/>
<path d="M1532 4030 c0 -14 2 -19 5 -12 2 6 2 18 0 25 -3 6 -5 1 -5 -13z"/>
<path d="M7113 3980 c0 -36 2 -50 4 -32 2 17 2 47 0 65 -2 17 -4 3 -4 -33z"/>
<path d="M7278 3930 c-6 -108 2 -246 14 -228 5 8 7 -5 4 -37 -3 -29 -2 -38 2
-22 7 28 7 27 31 -23 13 -28 44 -68 68 -89 36 -32 43 -45 43 -75 0 -20 5 -36
10 -36 6 0 10 13 10 30 0 24 3 28 18 23 11 -4 10 0 -5 11 -17 13 -23 27 -23
54 l1 37 16 -30 c8 -16 29 -45 47 -63 30 -32 31 -34 32 -140 1 -102 24 -225
45 -238 5 -2 2 13 -6 35 -21 60 -35 181 -28 240 3 28 8 51 10 51 2 0 18 -10
36 -22 30 -22 32 -26 33 -89 1 -72 23 -146 53 -173 13 -12 10 0 -11 41 -19 38
-31 82 -35 127 l-6 69 50 -28 c48 -27 51 -31 56 -78 4 -27 17 -68 31 -92 l24
-44 -29 -6 c-16 -4 -31 -6 -34 -6 -13 2 -71 -38 -88 -61 -16 -22 -18 -31 -8
-54 l11 -29 -5 28 c-7 37 9 67 34 60 13 -3 22 -20 30 -61 14 -72 15 -69 -14
-74 -25 -5 -25 -4 -25 61 0 45 -3 61 -10 51 -5 -8 -7 -25 -4 -36 7 -26 -13
-42 -23 -19 -5 14 -8 11 -18 -12 -9 -21 -49 -51 -158 -117 -141 -87 -262 -175
-302 -221 -36 -43 -116 -105 -126 -99 -5 3 -8 0 -7 -7 2 -6 -40 -48 -92 -92
-57 -47 -104 -96 -117 -121 -30 -55 -50 -178 -68 -431 -16 -216 -26 -296 -50
-400 -8 -33 -21 -92 -30 -132 -11 -47 -25 -79 -41 -94 -13 -12 -29 -38 -35
-58 -6 -20 -19 -45 -28 -55 -9 -11 -10 -16 -4 -12 10 5 11 -10 6 -68 -5 -69
-4 -80 22 -130 15 -30 49 -79 75 -108 l48 -54 -57 -45 c-31 -24 -57 -54 -59
-66 -4 -28 -29 -49 -72 -61 -25 -7 -29 -10 -12 -11 27 -1 30 -35 7 -68 -24
-34 -43 -18 -80 63 -35 75 -57 105 -28 36 23 -53 33 -103 20 -95 -6 4 -8 0 -4
-11 4 -9 3 -15 -2 -12 -9 6 -255 -433 -248 -441 3 -2 55 88 117 201 61 114
114 206 116 206 6 0 -141 -280 -186 -355 -20 -33 -42 -60 -49 -60 -6 0 -21
-15 -32 -33 l-21 -32 973 5 c536 3 1051 6 1144 7 94 0 226 -2 295 -5 114 -6
122 -6 90 7 -19 8 -47 15 -62 15 -23 1 -48 24 -48 45 0 6 58 -10 160 -45 l86
-29 423 2 423 3 -65 52 c-94 77 -170 120 -266 150 -47 15 -95 34 -105 43 -11
8 -16 9 -12 3 7 -13 -116 -11 -281 3 -63 6 -93 22 -473 267 -131 85 -354 313
-443 454 -27 43 -22 63 15 63 16 0 17 -3 8 -20 -9 -17 -6 -25 14 -45 29 -28
67 -32 90 -9 21 21 21 21 -15 55 l-31 29 75 0 c62 0 78 3 86 18 7 11 10 12 11
4 0 -16 64 -8 119 14 21 9 38 11 44 5 5 -5 20 -44 33 -87 14 -46 22 -62 18
-39 -3 22 -14 66 -25 98 -18 55 -19 60 -3 86 9 16 32 36 50 44 18 9 41 31 51
49 32 60 127 328 139 393 3 19 10 33 14 30 5 -3 8 7 8 22 0 16 11 73 25 128
14 55 31 127 37 160 18 91 87 377 99 407 6 15 6 30 1 33 -8 5 -51 -162 -130
-508 -54 -236 -72 -302 -126 -447 -44 -120 -77 -194 -104 -237 -9 -14 -36 -28
-76 -39 -34 -10 -61 -21 -59 -24 2 -3 -25 -6 -58 -7 -34 -2 -91 -9 -127 -17
-70 -16 -71 -16 75 0 28 3 19 -2 -30 -15 -81 -23 -304 -49 -520 -61 -162 -9
-303 -29 -285 -40 6 -4 -34 -22 -90 -40 -77 -25 -117 -33 -162 -31 -74 3 -163
34 -203 72 -16 15 -34 29 -40 29 -5 1 -9 10 -8 21 2 10 -2 18 -8 16 -6 -1 -14
4 -17 12 -3 9 0 11 8 6 10 -6 12 -4 7 9 -4 10 -7 23 -8 29 0 7 -5 3 -10 -8
-15 -33 2 126 18 165 28 68 99 120 207 151 34 10 53 18 43 18 -10 1 -43 -8
-75 -18 -31 -11 -74 -22 -94 -26 -20 -4 -67 -25 -104 -46 -37 -22 -70 -37 -73
-33 -17 17 -2 92 27 138 l31 48 -4 187 c-3 119 -1 181 5 171 6 -10 8 -3 4 21
-4 20 -2 39 4 43 5 3 0 25 -15 53 -23 45 -24 56 -21 169 4 111 6 125 30 161
14 22 57 60 94 85 138 90 299 195 309 201 9 4 152 -26 160 -35 2 -2 -6 -16
-18 -32 -55 -71 -80 -96 -96 -96 -14 0 -14 -2 -1 -10 11 -7 20 -3 33 15 10 14
25 25 33 25 18 0 18 -10 -1 -37 -11 -16 -12 -24 -4 -29 8 -4 9 -3 5 4 -4 7 -3
12 2 12 5 0 15 13 22 29 27 66 227 230 295 242 22 3 60 10 84 14 l44 8 -27
-45 c-38 -66 -66 -186 -74 -328 -9 -149 -4 -530 7 -530 4 0 15 24 24 53 22 69
65 157 66 135 2 -31 36 -22 37 10 1 31 57 180 98 260 15 29 53 89 85 134 54
75 58 84 50 117 -4 20 -13 62 -20 93 -17 80 -6 224 24 326 35 118 17 88 -28
-48 -33 -97 -39 -129 -39 -202 -1 -105 -16 -100 -25 9 l-6 78 -14 -50 c-7 -27
-17 -86 -21 -130 l-7 -80 -2 74 c0 40 6 99 14 131 19 75 109 284 144 335 15
22 79 112 141 200 62 88 143 205 179 260 35 55 78 118 94 140 l30 40 -39 -40
c-51 -54 -125 -115 -138 -115 -5 0 6 17 25 38 19 20 41 46 49 57 7 11 -10 -5
-37 -35 -28 -30 -52 -59 -53 -65 -2 -5 -10 -16 -19 -24 -23 -19 38 17 77 46
18 14 35 23 38 21 2 -3 -22 -42 -54 -88 -51 -74 -65 -88 -127 -120 -39 -20
-88 -44 -110 -53 -22 -9 -29 -14 -15 -11 14 3 58 21 98 40 40 18 70 28 66 21
-36 -61 -95 -133 -119 -144 -21 -10 -23 -13 -7 -9 12 2 22 2 22 0 0 -2 -31
-47 -69 -99 -38 -53 -71 -99 -73 -104 -2 -4 -22 -11 -46 -14 -41 -5 -43 -4
-62 32 -10 21 -27 44 -37 52 -12 9 -10 4 6 -16 l23 -30 -32 -28 c-26 -23 -34
-26 -41 -16 -7 11 -9 9 -10 -6 -1 -12 -6 -4 -15 20 l-13 40 2 -45 c2 -37 -1
-45 -18 -48 -16 -4 -17 -2 -6 11 29 35 -10 95 -43 68 -16 -14 -22 -56 -8 -64
4 -3 7 9 7 26 0 25 4 32 20 32 26 0 34 -44 11 -57 -9 -5 -14 -13 -11 -17 2 -5
-4 -11 -15 -14 -20 -5 -21 -3 -35 84 l-7 36 51 -1 c28 -1 51 2 51 5 0 14 -28
17 -71 8 -24 -4 -51 -8 -59 -8 -25 -1 7 16 77 39 61 21 61 22 43 40 -19 19
-50 107 -50 142 0 17 3 16 34 -4 37 -25 46 -49 46 -129 0 -35 -5 -51 -17 -58
-10 -6 -12 -11 -5 -11 19 0 27 4 24 13 -1 5 8 6 20 2 15 -4 19 -3 10 3 -9 6
-1 14 28 27 22 10 38 20 36 22 -2 3 -22 -5 -45 -17 l-41 -20 0 74 0 74 -92 52
c-169 97 -236 148 -265 204 l-15 29 29 -7 c22 -5 24 -4 11 4 -10 6 -21 12 -25
12 -11 3 -33 46 -34 67 0 12 -2 13 -6 2 -4 -10 -12 -3 -24 20 -10 19 -18 29
-19 23 0 -6 10 -26 23 -45 40 -60 42 -64 12 -41 -17 13 -43 42 -59 65 -20 30
-26 35 -21 17 4 -14 11 -26 16 -28 4 -2 6 -9 3 -16 -3 -8 2 -31 10 -52 l16
-39 -30 35 c-57 65 -74 129 -77 284 -1 76 -4 141 -6 143 -3 2 -6 -32 -9 -77z
m152 -370 c0 -17 -5 -27 -15 -27 -8 0 -12 4 -10 8 3 4 -2 23 -10 43 -21 49
-19 53 10 26 15 -14 25 -35 25 -50z m580 -589 c0 -5 -9 -19 -20 -32 -17 -21
-19 -21 -13 -4 10 33 33 57 33 36z m-399 -54 c-10 -9 -11 -8 -5 6 3 10 9 15
12 12 3 -3 0 -11 -7 -18z m299 -70 c0 -2 -11 -14 -25 -27 l-25 -23 0 26 c0 22
5 27 25 27 14 0 25 -1 25 -3z m-191 -34 c-31 -37 -112 -93 -136 -93 l-26 0 27
21 c14 11 24 24 21 28 -2 5 4 16 15 26 11 10 20 15 20 11 0 -4 10 0 22 8 12 9
33 16 46 16 22 0 23 -2 11 -17z m-378 -143 c-41 -22 -76 -38 -78 -36 -7 7 113
75 132 75 11 0 -13 -17 -54 -39z m259 28 c0 -4 -4 -9 -10 -9 -20 -3 -25 -5
-45 -16 -11 -6 -20 -15 -20 -19 0 -15 -163 -165 -169 -155 -13 20 191 211 223
208 12 -1 21 -5 21 -9z m-906 -1302 c-3 -15 -8 -25 -11 -23 -2 3 -1 17 3 31 3
15 8 25 11 23 2 -3 1 -17 -3 -31z m-17 -58 c-3 -8 -6 -5 -6 6 -1 11 2 17 5 13
3 -3 4 -12 1 -19z m1693 -182 c0 -2 -7 -7 -16 -10 -8 -3 -12 -2 -9 4 6 10 25
14 25 6z m-77 -13 c-7 -2 -19 -2 -25 0 -7 3 -2 5 12 5 14 0 19 -2 13 -5z
m-308 -72 c-22 -4 -46 -10 -52 -14 -7 -5 -19 -5 -25 0 -16 9 30 21 82 21 l35
-1 -40 -6z m45 -71 c0 -5 -2 -10 -4 -10 -3 0 -8 5 -11 10 -3 6 -1 10 4 10 6 0
11 -4 11 -10z m30 -10 c6 -11 8 -20 6 -20 -3 0 -10 9 -16 20 -6 11 -8 20 -6
20 3 0 10 -9 16 -20z m-1485 -380 c-10 -11 -23 -20 -29 -20 -6 0 0 9 14 20 32
25 38 25 15 0z m-405 -564 c0 -2 -8 -10 -17 -17 -16 -13 -17 -12 -4 4 13 16
21 21 21 13z"/>
<path d="M7619 2783 c-13 -16 -12 -17 4 -4 16 13 21 21 13 21 -2 0 -10 -8 -17
-17z"/>
<path d="M9022 3990 c0 -14 2 -19 5 -12 2 6 2 18 0 25 -3 6 -5 1 -5 -13z"/>
<path d="M921 3984 c0 -11 3 -14 6 -6 3 7 2 16 -1 19 -3 4 -6 -2 -5 -13z"/>
<path d="M352 3960 c0 -19 2 -27 5 -17 2 9 2 25 0 35 -3 9 -5 1 -5 -18z"/>
<path d="M1521 3974 c0 -11 3 -14 6 -6 3 7 2 16 -1 19 -3 4 -6 -2 -5 -13z"/>
<path d="M182 3960 c0 -14 2 -19 5 -12 2 6 2 18 0 25 -3 6 -5 1 -5 -13z"/>
<path d="M402 3940 c0 -19 2 -27 5 -17 2 9 2 25 0 35 -3 9 -5 1 -5 -18z"/>
<path d="M7376 3935 c-6 -23 -9 -26 -17 -14 -8 11 -9 10 -5 -6 3 -11 8 -47 12
-80 3 -33 11 -67 16 -75 7 -12 8 -11 4 5 -2 11 -7 43 -10 70 l-7 50 21 -24
c18 -21 20 -21 20 -5 0 11 -6 39 -14 63 -13 45 -13 45 -20 16z m6 -37 c-7 -7
-12 -8 -12 -2 0 14 12 26 19 19 2 -3 -1 -11 -7 -17z"/>
<path d="M8008 3934 c6 -11 18 -28 27 -39 15 -19 15 -18 1 12 -9 17 -21 35
-27 39 -8 4 -8 1 -1 -12z"/>
<path d="M172 3900 c0 -19 2 -27 5 -17 2 9 2 25 0 35 -3 9 -5 1 -5 -18z"/>
<path d="M8756 3915 c-9 -26 -7 -32 5 -12 6 10 9 21 6 23 -2 3 -7 -2 -11 -11z"/>
<path d="M433 3885 c0 -22 2 -30 4 -17 2 12 2 30 0 40 -3 9 -5 -1 -4 -23z"/>
<path d="M913 3875 c0 -27 2 -38 4 -22 2 15 2 37 0 50 -2 12 -4 0 -4 -28z"/>
<path d="M9041 3904 c0 -11 3 -14 6 -6 3 7 2 16 -1 19 -3 4 -6 -2 -5 -13z"/>
<path d="M363 3850 c0 -36 2 -50 4 -32 2 17 2 47 0 65 -2 17 -4 3 -4 -33z"/>
<path d="M7223 3845 c0 -38 2 -53 4 -32 2 20 2 52 0 70 -2 17 -4 1 -4 -38z"/>
<path d="M7734 3901 c4 -5 1 -12 -4 -14 -6 -3 -5 -4 2 -3 15 3 23 26 8 26 -6
0 -9 -4 -6 -9z"/>
<path d="M7151 3818 c0 -48 3 -89 8 -92 4 -3 6 -18 4 -33 -4 -23 -2 -25 7 -13
10 12 10 10 5 -10 -3 -14 -6 -29 -5 -35 0 -5 4 -39 9 -75 8 -62 8 -63 11 -20
6 105 5 127 -8 165 -8 22 -17 76 -22 120 l-7 80 -2 -87z"/>
<path d="M8440 3880 c0 -6 -32 -11 -72 -12 l-73 -2 60 -3 c65 -5 105 2 105 17
0 6 -4 10 -10 10 -5 0 -10 -4 -10 -10z"/>
<path d="M8497 3797 c-25 -50 -39 -83 -31 -72 21 27 86 156 82 161 -3 2 -25
-38 -51 -89z"/>
<path d="M8933 3850 c0 -25 2 -35 4 -22 2 12 2 32 0 45 -2 12 -4 2 -4 -23z"/>
<path d="M7678 3873 c7 -3 16 -2 19 1 4 3 -2 6 -13 5 -11 0 -14 -3 -6 -6z"/>
<path d="M9051 3864 c0 -11 3 -14 6 -6 3 7 2 16 -1 19 -3 4 -6 -2 -5 -13z"/>
<path d="M1063 3835 c0 -22 2 -30 4 -17 2 12 2 30 0 40 -3 9 -5 -1 -4 -23z"/>
<path d="M1583 3830 c0 -25 2 -35 4 -22 2 12 2 32 0 45 -2 12 -4 2 -4 -23z"/>
<path d="M8055 3853 c1 -10 8 -17 14 -15 6 1 11 -2 11 -7 0 -5 8 -12 17 -16
11 -4 7 5 -11 24 -35 36 -35 36 -31 14z"/>
<path d="M222 3840 c0 -14 2 -19 5 -12 2 6 2 18 0 25 -3 6 -5 1 -5 -13z"/>
<path d="M163 3795 c0 -33 2 -45 4 -27 2 18 2 45 0 60 -2 15 -4 0 -4 -33z"/>
<path d="M1191 3834 c0 -11 3 -14 6 -6 3 7 2 16 -1 19 -3 4 -6 -2 -5 -13z"/>
<path d="M9061 3824 c0 -11 3 -14 6 -6 3 7 2 16 -1 19 -3 4 -6 -2 -5 -13z"/>
<path d="M1338 3803 c5 -21 7 -23 10 -9 2 10 0 22 -6 28 -6 6 -7 0 -4 -19z"/>
<path d="M7412 3800 c0 -14 6 -47 13 -75 l14 -50 -6 50 c-3 27 -9 61 -14 75
l-7 25 0 -25z"/>
<path d="M2192 3790 c0 -14 2 -19 5 -12 2 6 2 18 0 25 -3 6 -5 1 -5 -13z"/>
<path d="M7111 3784 c0 -11 3 -14 6 -6 3 7 2 16 -1 19 -3 4 -6 -2 -5 -13z"/>
<path d="M8942 3770 c0 -19 2 -27 5 -17 2 9 2 25 0 35 -3 9 -5 1 -5 -18z"/>
<path d="M9072 3780 c0 -14 2 -19 5 -12 2 6 2 18 0 25 -3 6 -5 1 -5 -13z"/>
<path d="M213 3735 c0 -27 2 -38 4 -22 2 15 2 37 0 50 -2 12 -4 0 -4 -28z"/>
<path d="M371 3764 c0 -11 3 -14 6 -6 3 7 2 16 -1 19 -3 4 -6 -2 -5 -13z"/>
<path d="M1053 3730 c0 -30 2 -43 4 -27 2 15 2 39 0 55 -2 15 -4 2 -4 -28z"/>
<path d="M751 3754 c0 -11 3 -14 6 -6 3 7 2 16 -1 19 -3 4 -6 -2 -5 -13z"/>
<path d="M7231 3750 c-1 -22 22 -116 44 -185 5 -13 -4 -8 -24 15 -17 19 -31
40 -31 47 0 6 -3 14 -8 17 -9 6 -9 -81 1 -90 4 -4 7 5 7 20 l0 28 26 -31 c14
-17 29 -29 34 -26 4 3 13 -9 20 -25 7 -17 15 -29 17 -26 2 2 -5 22 -16 45 -28
54 -26 68 5 34 21 -23 20 -21 -5 15 -29 42 -55 108 -64 162 l-4 25 -2 -25z"/>
<path d="M1072 3730 c0 -14 2 -19 5 -12 2 6 2 18 0 25 -3 6 -5 1 -5 -13z"/>
<path d="M1180 3705 c-3 -27 -2 -79 1 -115 5 -55 6 -59 9 -25 2 22 4 51 5 65
1 25 31 41 103 55 15 3 50 11 77 19 45 13 47 14 18 15 -18 1 -67 -10 -110 -24
-43 -14 -81 -25 -85 -25 -4 0 -8 19 -10 43 l-3 42 -5 -50z"/>
<path d="M1593 3700 c0 -30 2 -43 4 -27 2 15 2 39 0 55 -2 15 -4 2 -4 -28z"/>
<path d="M7123 3699 c0 -40 2 -47 7 -29 5 14 8 19 9 11 1 -8 3 -12 6 -9 3 2
-1 22 -8 43 l-14 39 0 -55z"/>
<path d="M347 3707 c-6 -42 -2 -45 11 -8 6 17 7 33 3 36 -5 2 -11 -10 -14 -28z"/>
<path d="M901 3724 c0 -11 3 -14 6 -6 3 7 2 16 -1 19 -3 4 -6 -2 -5 -13z"/>
<path d="M1953 3707 c-1 -26 0 -28 7 -12 11 26 12 45 3 45 -5 0 -9 -15 -10
-33z"/>
<path d="M2200 3717 c0 -29 -32 -48 -101 -61 l-34 -7 25 22 25 21 -30 -17
c-16 -10 -40 -25 -52 -33 -12 -7 -26 -11 -31 -8 -6 3 -16 -1 -23 -10 -17 -20
-99 -77 -99 -68 0 3 -8 -4 -18 -17 -15 -17 -21 -19 -27 -9 -5 8 -4 11 3 6 10
-6 23 20 27 54 1 8 5 29 9 45 4 17 -4 3 -18 -30 -14 -33 -39 -80 -56 -105
l-31 -45 29 33 c30 33 54 45 31 15 -11 -15 -11 -16 1 -5 21 19 32 14 20 -8 -6
-12 -10 -33 -8 -49 3 -26 5 -27 35 -19 17 4 34 17 38 27 5 17 43 36 53 26 2
-2 -5 -19 -17 -38 -25 -41 -67 -71 -87 -63 -8 3 -14 2 -14 -3 0 -31 60 -11 93
32 46 60 83 148 56 132 -5 -4 -22 -8 -36 -10 l-26 -3 24 19 c13 10 32 19 42
19 9 0 17 4 17 8 0 8 40 26 94 42 l29 9 -6 -41 c-3 -22 -19 -67 -35 -99 l-29
-59 31 1 c26 1 28 2 9 7 l-22 7 29 43 c16 24 36 64 46 90 28 79 28 79 32 50 2
-15 -6 -49 -18 -75 -17 -39 -46 -145 -65 -238 -4 -18 -2 -18 15 3 10 13 17 29
14 36 -7 17 20 131 41 176 l16 35 -5 -32 c-3 -19 -1 -33 4 -33 6 0 11 15 11
33 3 58 -2 211 -7 216 -2 2 -4 -8 -4 -22z m0 -52 c0 -9 -6 -12 -16 -8 -13 5
-13 7 -2 14 17 11 18 11 18 -6z m-309 -196 c-9 -22 -10 -22 -10 -3 -1 11 2 24
6 27 12 12 14 0 4 -24z"/>
<path d="M9081 3724 c0 -11 3 -14 6 -6 3 7 2 16 -1 19 -3 4 -6 -2 -5 -13z"/>
<path d="M8953 3680 c0 -25 2 -35 4 -22 2 12 2 32 0 45 -2 12 -4 2 -4 -23z"/>
<path d="M1872 3690 c-9 -15 -9 -19 0 -18 6 2 15 -10 19 -27 6 -24 7 -21 6 17
-2 53 -6 58 -25 28z"/>
<path d="M172 3665 c0 -16 2 -22 5 -12 2 9 2 23 0 30 -3 6 -5 -1 -5 -18z"/>
<path d="M433 3645 c0 -27 2 -38 4 -22 2 15 2 37 0 50 -2 12 -4 0 -4 -28z"/>
<path d="M1081 3674 c0 -11 3 -14 6 -6 3 7 2 16 -1 19 -3 4 -6 -2 -5 -13z"/>
<path d="M9092 3665 c0 -16 2 -22 5 -12 2 9 2 23 0 30 -3 6 -5 -1 -5 -18z"/>
<path d="M2458 3595 c-3 -49 -4 -92 -2 -94 11 -12 15 15 12 95 l-3 89 -7 -90z"/>
<path d="M2531 3654 c0 -11 3 -14 6 -6 3 7 2 16 -1 19 -3 4 -6 -2 -5 -13z"/>
<path d="M8891 3654 c0 -11 3 -14 6 -6 3 7 2 16 -1 19 -3 4 -6 -2 -5 -13z"/>
<path d="M1091 3637 c-1 -14 4 -17 22 -11 25 7 55 23 45 24 -4 0 -18 -4 -32
-9 -17 -7 -26 -7 -30 2 -2 7 -5 4 -5 -6z"/>
<path d="M1692 3625 c0 -16 2 -22 5 -12 2 9 2 23 0 30 -3 6 -5 -1 -5 -18z"/>
<path d="M1958 3639 c-10 -5 -18 -6 -18 -2 0 10 -20 -19 -20 -30 0 -4 6 -3 13
3 6 6 21 17 32 25 23 17 18 19 -7 4z"/>
<path d="M771 3624 c0 -11 3 -14 6 -6 3 7 2 16 -1 19 -3 4 -6 -2 -5 -13z"/>
<path d="M1043 3575 c0 -46 2 -54 4 -25 2 27 11 51 21 59 16 13 16 13 0 8 -11
-4 -18 0 -21 11 -3 9 -4 -14 -4 -53z"/>
<path d="M177 3609 c4 -13 8 -18 11 -10 2 7 -1 18 -6 23 -8 8 -9 4 -5 -13z"/>
<path d="M300 3600 c-6 -11 -8 -20 -6 -20 3 0 10 9 16 20 6 11 8 20 6 20 -3 0
-10 -9 -16 -20z"/>
<path d="M922 3595 c0 -16 2 -22 5 -12 2 9 2 23 0 30 -3 6 -5 -1 -5 -18z"/>
<path d="M9104 3530 c0 -52 1 -74 3 -47 2 26 2 68 0 95 -2 26 -3 4 -3 -48z"/>
<path d="M1101 3600 c0 -8 6 -28 14 -45 17 -39 18 -21 0 25 -7 19 -14 28 -14
20z"/>
<path d="M1373 3603 c9 -2 23 -2 30 0 6 3 -1 5 -18 5 -16 0 -22 -2 -12 -5z"/>
<path d="M1880 3587 c0 -11 1 -18 3 -16 1 2 8 11 15 20 9 13 9 16 -3 16 -8 0
-15 -9 -15 -20z"/>
<path d="M7111 3594 c0 -11 3 -14 6 -6 3 7 2 16 -1 19 -3 4 -6 -2 -5 -13z"/>
<path d="M8589 3593 c-13 -16 -12 -17 4 -4 9 7 17 15 17 17 0 8 -8 3 -21 -13z"/>
<path d="M8782 3590 c0 -14 2 -19 5 -12 2 6 2 18 0 25 -3 6 -5 1 -5 -13z"/>
<path d="M2542 3560 c0 -19 2 -27 5 -17 2 9 2 25 0 35 -3 9 -5 1 -5 -18z"/>
<path d="M8648 3493 c-61 -90 -99 -130 -293 -313 -66 -62 -106 -137 -113 -215
-4 -39 -7 -44 -12 -25 -5 22 -8 19 -20 -23 -11 -42 -11 -50 1 -58 10 -6 15 -2
19 19 5 23 7 19 13 -22 11 -79 12 -78 -27 -62 -34 14 -34 14 -40 -16 -3 -17
-6 -49 -6 -72 l1 -41 22 25 c12 14 32 33 44 44 l22 18 -9 -33 c-17 -69 -22
-169 -9 -185 8 -9 9 -18 3 -22 -12 -9 -16 -72 -4 -72 6 0 11 10 12 23 1 27 2
28 16 97 19 95 35 258 28 294 -9 48 29 231 59 282 31 53 99 114 128 114 17 0
19 2 7 9 -8 6 -18 7 -24 4 -5 -3 -6 -1 -2 6 4 6 11 9 15 7 10 -7 57 43 122
129 29 39 56 69 61 68 4 -2 8 4 8 13 0 8 12 35 26 60 43 74 21 50 -48 -53z
m-361 -710 c-2 -16 -4 -5 -4 22 0 28 2 40 4 28 2 -13 2 -35 0 -50z"/>
<path d="M8953 3555 c0 -22 2 -30 4 -17 2 12 2 30 0 40 -3 9 -5 -1 -4 -23z"/>
<path d="M442 3560 c0 -14 2 -19 5 -12 2 6 2 18 0 25 -3 6 -5 1 -5 -13z"/>
<path d="M1201 3564 c0 -11 3 -14 6 -6 3 7 2 16 -1 19 -3 4 -6 -2 -5 -13z"/>
<path d="M2277 3541 c-6 -50 -57 -156 -99 -206 -30 -36 -33 -44 -27 -85 l6
-45 1 51 c2 40 7 55 28 75 32 29 84 117 84 142 0 10 4 16 8 13 4 -2 9 18 10
45 2 59 -3 64 -11 10z"/>
<path d="M1681 3554 c0 -11 3 -14 6 -6 3 7 2 16 -1 19 -3 4 -6 -2 -5 -13z"/>
<path d="M7848 3563 c7 -3 16 -2 19 1 4 3 -2 6 -13 5 -11 0 -14 -3 -6 -6z"/>
<path d="M933 3545 c-3 -9 -3 -18 -1 -21 3 -3 8 4 11 16 6 23 -1 27 -10 5z"/>
<path d="M8772 3540 c0 -14 2 -19 5 -12 2 6 2 18 0 25 -3 6 -5 1 -5 -13z"/>
<path d="M1340 3531 c0 -11 -6 -22 -12 -24 -8 -3 -6 -6 5 -6 12 -1 17 7 17 24
0 14 -2 25 -5 25 -3 0 -5 -9 -5 -19z"/>
<path d="M1758 3502 c-22 -60 -15 -67 7 -7 10 25 16 47 14 50 -3 2 -12 -17
-21 -43z"/>
<path d="M8534 3528 l-19 -23 23 19 c21 18 27 26 19 26 -2 0 -12 -10 -23 -22z"/>
<path d="M1210 3526 c0 -8 4 -17 9 -20 5 -4 7 3 4 14 -6 23 -13 26 -13 6z"/>
<path d="M7342 3515 c0 -16 2 -22 5 -12 2 9 2 23 0 30 -3 6 -5 -1 -5 -18z"/>
<path d="M1671 3504 c0 -11 3 -14 6 -6 3 7 2 16 -1 19 -3 4 -6 -2 -5 -13z"/>
<path d="M451 3494 c0 -11 3 -14 6 -6 3 7 2 16 -1 19 -3 4 -6 -2 -5 -13z"/>
<path d="M941 3500 c0 -8 4 -22 9 -30 12 -18 12 -2 0 25 -6 13 -9 15 -9 5z"/>
<path d="M1191 3491 c-2 -36 20 -101 32 -94 6 4 38 9 71 12 54 5 61 9 64 29 4
23 1 24 -52 20 -31 -1 -56 1 -56 6 0 4 -11 5 -24 2 -21 -5 -25 -2 -29 21 -4
25 -4 25 -6 4z"/>
<path d="M1602 3485 c0 -16 2 -22 5 -12 2 9 2 23 0 30 -3 6 -5 -1 -5 -18z"/>
<path d="M7202 3485 c0 -16 2 -22 5 -12 2 9 2 23 0 30 -3 6 -5 -1 -5 -18z"/>
<path d="M8761 3494 c0 -11 3 -14 6 -6 3 7 2 16 -1 19 -3 4 -6 -2 -5 -13z"/>
<path d="M1052 3465 c-1 -22 5 -67 13 -100 8 -33 14 -64 14 -70 1 -13 -30 24
-81 100 -22 33 -37 51 -33 40 4 -11 11 -36 14 -55 5 -25 11 -34 24 -32 10 2
27 -13 44 -37 16 -22 32 -40 37 -41 5 0 6 3 3 7 -4 3 4 12 18 19 19 10 31 10
56 1 27 -11 33 -10 49 11 12 14 29 22 49 22 17 0 31 -2 31 -5 0 -16 -35 -72
-54 -87 -11 -10 -16 -18 -10 -18 14 0 59 49 76 85 24 47 31 88 16 83 -44 -17
-58 -19 -58 -8 0 8 -10 10 -26 7 -22 -4 -30 1 -46 30 -22 36 -20 36 -105 16
-19 -4 -22 0 -26 34 l-4 38 -1 -40z m141 -127 c-10 -21 -12 -21 -18 -5 -10 25
2 54 17 39 8 -8 8 -18 1 -34z"/>
<path d="M1268 3493 c7 -3 16 -2 19 1 4 3 -2 6 -13 5 -11 0 -14 -3 -6 -6z"/>
<path d="M2543 3460 c0 -25 2 -35 4 -22 2 12 2 32 0 45 -2 12 -4 2 -4 -23z"/>
<path d="M8941 3484 c0 -11 3 -14 6 -6 3 7 2 16 -1 19 -3 4 -6 -2 -5 -13z"/>
<path d="M1218 3483 c7 -3 16 -2 19 1 4 3 -2 6 -13 5 -11 0 -14 -3 -6 -6z"/>
<path d="M370 3472 c0 -7 -3 -11 -7 -9 -5 1 -9 -2 -11 -8 -2 -5 -13 -21 -25
-35 -12 -14 -4 -8 18 12 21 21 36 40 32 44 -4 4 -7 2 -7 -4z"/>
<path d="M414 3458 l-19 -23 23 19 c12 11 22 21 22 23 0 8 -8 2 -26 -19z"/>
<path d="M1648 3434 c-8 -24 -12 -44 -8 -44 7 0 34 80 28 85 -2 2 -11 -16 -20
-41z"/>
<path d="M2177 3430 c-29 -86 -29 -89 -2 -31 14 30 25 61 23 69 -2 9 -11 -9
-21 -38z"/>
<path d="M2440 3428 c-15 -63 -48 -132 -86 -179 l-28 -34 27 24 c15 14 38 43
51 65 25 43 62 163 54 172 -3 3 -11 -19 -18 -48z"/>
<path d="M8414 3392 c-83 -92 -134 -155 -74 -91 68 72 162 179 157 179 -2 0
-40 -39 -83 -88z"/>
<path d="M462 3450 c0 -14 2 -19 5 -12 2 6 2 18 0 25 -3 6 -5 1 -5 -13z"/>
<path d="M7331 3444 c0 -11 3 -14 6 -6 3 7 2 16 -1 19 -3 4 -6 -2 -5 -13z"/>
<path d="M8751 3444 c0 -11 3 -14 6 -6 3 7 2 16 -1 19 -3 4 -6 -2 -5 -13z"/>
<path d="M2472 3370 c-4 -144 -37 -229 -106 -271 -17 -10 -26 -19 -21 -19 23
0 113 80 113 100 -1 3 5 30 11 60 7 30 11 91 9 135 l-4 80 -2 -85z"/>
<path d="M1400 3424 c0 -15 26 -19 34 -5 3 5 -3 11 -14 14 -13 3 -20 0 -20 -9z"/>
<path d="M2271 3424 c0 -11 3 -14 6 -6 3 7 2 16 -1 19 -3 4 -6 -2 -5 -13z"/>
<path d="M188 3423 c31 -3 42 -8 42 -21 0 -9 4 -23 8 -30 5 -8 8 1 8 23 l-1
35 -50 -2 -50 -1 43 -4z"/>
<path d="M7421 3414 c0 -11 3 -14 6 -6 3 7 2 16 -1 19 -3 4 -6 -2 -5 -13z"/>
<path d="M8615 3365 c-17 -35 -25 -59 -19 -54 13 10 58 109 52 114 -2 2 -17
-25 -33 -60z"/>
<path d="M9091 3414 c0 -11 3 -14 6 -6 3 7 2 16 -1 19 -3 4 -6 -2 -5 -13z"/>
<path d="M1702 3384 c-12 -19 -20 -34 -18 -34 7 0 49 61 44 65 -2 2 -13 -12
-26 -31z"/>
<path d="M2070 3400 c8 -5 20 -10 25 -10 6 0 3 5 -5 10 -8 5 -19 10 -25 10 -5
0 -3 -5 5 -10z"/>
<path d="M1592 3380 c0 -14 2 -19 5 -12 2 6 2 18 0 25 -3 6 -5 1 -5 -13z"/>
<path d="M2261 3384 c0 -11 3 -14 6 -6 3 7 2 16 -1 19 -3 4 -6 -2 -5 -13z"/>
<path d="M2518 3328 c-10 -44 -13 -77 -7 -82 5 -6 9 1 9 18 0 15 5 47 11 71 6
24 9 49 7 55 -1 5 -11 -22 -20 -62z"/>
<path d="M7091 3384 c0 -11 3 -14 6 -6 3 7 2 16 -1 19 -3 4 -6 -2 -5 -13z"/>
<path d="M7171 3384 c0 -11 3 -14 6 -6 3 7 2 16 -1 19 -3 4 -6 -2 -5 -13z"/>
<path d="M481 3374 c0 -11 3 -14 6 -6 3 7 2 16 -1 19 -3 4 -6 -2 -5 -13z"/>
<path d="M2030 3386 c0 -2 9 -6 20 -9 11 -3 18 -1 14 4 -5 9 -34 13 -34 5z"/>
<path d="M1625 3370 c3 -5 8 -10 11 -10 2 0 4 5 4 10 0 6 -5 10 -11 10 -5 0
-7 -4 -4 -10z"/>
<path d="M8710 3345 c-33 -53 -76 -85 -118 -86 -27 -1 -30 -3 -12 -6 137 -23
259 -125 302 -253 17 -50 16 -54 -13 -248 -11 -74 -19 -136 -16 -138 2 -3 14
57 25 133 12 76 23 149 25 163 3 14 5 -20 6 -75 1 -81 -5 -123 -31 -230 -28
-112 -33 -125 -38 -95 -5 34 -6 33 -13 -19 -6 -36 -4 -58 3 -65 8 -8 10 -3 6
19 -4 17 -3 23 1 15 4 -10 12 3 23 38 l16 53 78 -123 c42 -68 89 -139 103
-158 l26 -35 -7 127 -6 127 32 -4 c60 -7 218 -15 218 -10 0 2 -44 39 -97 81
-204 161 -339 300 -275 281 142 -40 144 -41 152 -28 4 7 11 59 14 115 4 55 12
130 17 166 6 35 8 74 5 86 -5 19 -10 20 -57 13 -28 -5 -81 -18 -116 -30 -52
-17 -67 -19 -76 -9 -9 10 -8 12 4 7 9 -3 31 9 55 29 l39 35 -40 -24 c-22 -13
-61 -31 -87 -40 -44 -15 -49 -14 -60 1 -7 9 -25 23 -40 31 l-27 14 39 26 c21
14 56 46 76 71 l37 45 -54 -51 c-89 -84 -93 -86 -147 -61 l-47 21 35 32 c19
18 43 46 53 63 25 42 14 39 -13 -4z m170 -207 c0 -6 -3 -8 -6 -5 -4 3 -15 2
-25 -3 -11 -6 -20 -6 -24 -1 -3 5 3 12 12 14 32 8 43 7 43 -5z"/>
<path d="M8811 3353 c-10 -26 -10 -27 4 -9 8 11 15 23 15 28 0 15 -7 8 -19
-19z"/>
<path d="M925 3351 c6 -11 3 -13 -13 -9 -13 4 -20 2 -19 -6 1 -6 -5 -9 -13 -8
-8 2 -12 0 -8 -4 4 -4 2 -14 -5 -22 -10 -13 -9 -15 5 -9 11 4 29 -6 53 -29 44
-41 53 -39 30 6 -9 18 -15 41 -12 51 3 10 -2 24 -11 31 -13 11 -14 11 -7 -1z"/>
<path d="M1606 3352 c-3 -5 1 -9 9 -9 8 0 12 4 9 9 -3 4 -7 8 -9 8 -2 0 -6 -4
-9 -8z"/>
<path d="M7181 3344 c0 -11 3 -14 6 -6 3 7 2 16 -1 19 -3 4 -6 -2 -5 -13z"/>
<path d="M250 3345 c0 -5 5 -17 10 -25 5 -8 10 -10 10 -5 0 6 -5 17 -10 25 -5
8 -10 11 -10 5z"/>
<path d="M8976 3333 c-6 -14 -5 -15 5 -6 7 7 10 15 7 18 -3 3 -9 -2 -12 -12z"/>
<path d="M1639 3303 l-34 -38 38 34 c34 33 42 41 34 41 -2 0 -19 -17 -38 -37z"/>
<path d="M9051 3313 c-10 -26 -10 -27 4 -9 8 11 15 23 15 28 0 15 -7 8 -19
-19z"/>
<path d="M1606 3313 c-6 -14 -5 -15 5 -6 7 7 10 15 7 18 -3 3 -9 -2 -12 -12z"/>
<path d="M2220 3280 c-13 -28 -44 -72 -69 -97 -30 -31 -37 -42 -19 -31 l26 17
10 -37 10 -37 -3 44 c-2 37 3 54 30 95 30 47 52 96 42 96 -2 0 -14 -23 -27
-50z"/>
<path d="M7051 3314 c0 -11 3 -14 6 -6 3 7 2 16 -1 19 -3 4 -6 -2 -5 -13z"/>
<path d="M2335 3311 c-3 -5 -2 -12 3 -15 5 -3 9 1 9 9 0 17 -3 19 -12 6z"/>
<path d="M8010 3295 c-36 -13 -60 -24 -54 -24 13 -1 134 39 134 45 0 7 -12 4
-80 -21z"/>
<path d="M7161 3300 c0 -8 4 -24 9 -35 l9 -20 0 20 c0 11 -4 27 -9 35 -9 13
-10 13 -9 0z"/>
<path d="M2270 3238 c-30 -28 -45 -46 -33 -40 11 7 36 26 54 44 18 18 37 32
42 30 4 -1 6 2 2 8 -8 13 -2 17 -65 -42z"/>
<path d="M8754 3268 l-19 -23 23 19 c12 11 22 21 22 23 0 8 -8 2 -26 -19z"/>
<path d="M2116 3269 c-3 -8 -10 -39 -16 -69 -15 -79 -62 -154 -149 -240 -82
-81 -254 -215 -286 -223 -11 -2 -5 -3 12 -1 25 2 37 -3 48 -19 20 -28 58 -152
53 -169 -3 -8 -32 14 -75 55 -50 49 -77 67 -96 67 -32 0 -33 5 -7 48 l20 32
-21 0 c-11 0 -17 -5 -14 -10 10 -17 -34 -83 -75 -112 -40 -30 -72 -33 -148
-19 -28 6 -40 5 -34 -1 5 -5 44 -12 87 -15 l77 -6 -6 -46 c-10 -85 -16 -209
-7 -168 4 20 11 40 14 43 9 10 116 -49 122 -66 8 -25 65 -103 171 -232 130
-160 166 -210 247 -345 73 -122 98 -174 116 -246 10 -42 9 -51 -10 -90 -12
-23 -66 -87 -120 -141 -54 -55 -97 -101 -95 -103 7 -7 177 167 204 210 38 60
44 48 40 -80 -3 -88 -3 -90 27 -116 17 -14 37 -27 46 -27 23 0 93 79 117 133
24 54 47 214 38 271 -9 66 -63 182 -147 318 -83 132 -175 252 -189 243 -4 -3
-13 2 -19 9 -15 18 2 16 36 -2 26 -14 132 -15 223 -2 61 9 67 8 103 -17 50
-34 58 -75 43 -213 -10 -96 -16 -121 -38 -160 l-19 -35 24 25 c13 14 23 28 21
32 -3 4 1 10 7 14 9 5 10 -1 5 -20 -4 -17 -3 -25 3 -22 5 4 8 -21 6 -62 -2
-37 1 -69 6 -73 12 -7 -15 -289 -28 -297 -6 -4 -20 -27 -32 -52 -12 -25 -15
-36 -7 -25 9 11 20 25 25 31 5 7 7 15 4 18 -4 3 -2 6 4 6 6 0 16 15 23 33 l11
32 24 -39 c13 -21 22 -44 20 -50 -34 -111 -40 -122 -124 -216 -47 -53 -108
-122 -135 -154 -67 -78 -156 -139 -262 -180 -80 -31 -220 -64 -228 -55 -2 2 7
64 20 137 22 126 81 318 107 351 7 8 8 12 2 9 -7 -4 -9 35 -7 110 3 109 1 123
-27 202 -17 47 -39 91 -48 98 -9 6 -14 12 -10 12 9 0 -88 143 -141 208 l-35
44 -26 -50 c-45 -87 -61 -101 -31 -27 15 39 30 77 32 86 1 9 -15 36 -37 60
l-41 44 1 -145 c0 -177 -8 -240 -40 -305 -28 -56 -72 -114 -60 -80 19 59 28
177 16 228 -9 40 -9 66 -1 104 6 28 10 69 7 90 -4 38 -4 38 -5 -7 -1 -25 -7
-61 -13 -80 -6 -19 -13 -48 -16 -65 -2 -16 -14 -52 -26 -80 -21 -52 -98 -177
-105 -171 -2 2 -14 -6 -26 -19 -13 -13 -38 -31 -57 -40 l-34 -17 27 24 c14 13
43 45 63 72 33 44 36 46 31 20 -3 -16 1 -9 10 16 25 74 29 206 9 336 -9 63
-19 113 -22 110 -2 -2 -9 -37 -14 -76 -12 -83 -60 -223 -89 -260 -17 -21 -16
-16 5 30 27 62 69 225 61 243 -2 7 -5 3 -5 -8 -1 -25 -55 -140 -70 -149 -5 -4
1 19 16 51 19 44 27 80 31 148 5 105 -11 181 -58 275 -17 34 -28 65 -25 69 2
5 -3 15 -12 22 -14 12 -16 12 -8 -1 5 -8 10 -23 11 -35 1 -11 7 -55 13 -98 14
-101 14 -251 0 -319 -13 -63 -62 -170 -86 -189 -13 -10 -12 -6 4 16 12 17 31
60 44 95 27 82 37 277 19 402 l-12 85 -41 20 c-63 31 -141 96 -187 157 -65 86
-230 392 -230 426 0 10 -5 22 -11 26 -15 9 -5 -24 30 -101 26 -56 27 -64 16
-111 -9 -39 -23 -64 -59 -102 -26 -27 -53 -58 -61 -68 -10 -14 -9 -2 5 41 10
34 21 83 24 110 4 36 1 28 -13 -30 -11 -44 -24 -93 -30 -108 -6 -16 -9 -33 -5
-38 3 -5 1 -9 -4 -9 -6 0 -12 -11 -16 -23 -8 -32 -45 -79 -57 -72 -5 4 -9 0
-9 -7 0 -8 -31 -40 -69 -72 -80 -68 -144 -165 -138 -208 2 -16 0 -28 -4 -28
-5 0 -6 -7 -3 -15 4 -8 2 -15 -2 -15 -5 0 -10 -62 -11 -138 -1 -89 -7 -154
-16 -185 -13 -41 -13 -58 -1 -125 18 -101 17 -141 -2 -275 -28 -192 -82 -378
-173 -596 l-31 -74 0 -313 0 -314 1530 0 1530 0 0 21 c0 75 -198 590 -310 806
-96 185 -97 192 -65 245 14 24 46 59 71 78 72 55 113 101 141 158 22 46 25 62
21 122 -3 38 -2 71 2 72 4 2 11 45 14 97 6 66 5 91 -3 87 -7 -4 -11 1 -11 13
0 12 4 21 9 21 4 0 11 31 15 69 4 39 16 101 27 138 33 117 20 297 -29 392 -25
48 -35 58 -122 106 -52 29 -113 65 -135 78 -42 27 -102 51 -147 61 -14 3 -29
14 -31 24 -4 15 -5 15 -6 -2 -1 -14 -6 -17 -23 -12 -37 9 -184 19 -177 12 4
-4 38 -9 75 -12 254 -18 338 -72 405 -258 9 -28 18 -44 18 -35 1 9 -10 47 -24
83 -25 67 -25 67 -3 52 38 -27 69 -128 75 -247 l6 -106 -37 -36 c-19 -20 -54
-42 -77 -48 -37 -12 -45 -11 -83 10 -66 34 -112 76 -135 123 -11 23 -19 44
-17 46 3 2 26 3 53 1 132 -5 212 12 233 51 17 31 11 34 -10 7 -33 -42 -111
-56 -224 -41 -32 5 -43 10 -34 16 18 12 -69 1 -212 -28 -109 -21 -196 -15
-241 17 -18 13 -29 18 -25 11 9 -15 -29 -16 -130 -1 -59 9 -83 18 -100 35 -11
13 -28 24 -37 24 -9 0 -25 12 -36 27 -20 25 -20 27 -4 43 10 9 27 15 38 13 11
-2 45 0 75 5 54 9 53 9 -30 8 -69 -1 -85 2 -85 14 0 8 10 16 23 18 21 3 32 22
13 22 -5 0 -22 13 -39 28 -28 26 -30 34 -31 96 l0 67 35 -30 c19 -17 39 -31
44 -31 14 0 12 39 -5 95 -8 27 -13 50 -12 52 2 1 34 -25 72 -58 39 -34 84 -68
100 -76 17 -9 45 -29 63 -44 37 -33 38 -33 72 -14 l25 15 -26 -6 c-25 -5 -49
10 -36 22 10 10 126 30 120 21 -5 -8 77 30 87 41 3 3 -5 2 -17 -1 -13 -3 -23
-1 -23 3 0 5 -3 15 -6 24 -3 9 -1 16 5 16 6 0 11 -7 11 -17 0 -9 2 -14 5 -11
3 2 0 31 -7 63 -9 47 -13 54 -19 37 -5 -12 -11 -22 -13 -22 -3 0 -3 6 0 13 2
7 -1 28 -9 46 l-14 32 -26 -35 c-15 -19 -42 -45 -59 -57 -31 -21 -30 -19 8 22
74 79 77 95 35 201 -16 40 -35 95 -42 121 -11 44 -10 52 10 87 21 38 55 170
46 179 -3 2 -7 -2 -9 -10z m-56 -260 c6 -22 14 -48 17 -57 5 -11 -6 -7 -34 13
l-40 29 20 28 c12 15 22 28 23 28 2 0 8 -18 14 -41z m-510 -388 c-19 -16 -37
-27 -40 -25 -6 6 52 53 65 53 6 0 -6 -13 -25 -28z m-1060 -455 c0 -11 -19 -15
-25 -6 -3 5 1 10 9 10 9 0 16 -2 16 -4z m-106 -61 c-5 -19 -9 -23 -15 -14 -4
7 -3 21 3 32 13 26 21 15 12 -18z m313 -111 c-3 -3 -12 -4 -19 -1 -8 3 -5 6 6
6 11 1 17 -2 13 -5z m2209 -42 c1 -7 0 -8 -3 -1 -3 6 -19 -2 -39 -22 -38 -36
-48 -20 -12 18 23 25 49 27 54 5z m1 -134 c-3 -8 -6 -5 -6 6 -1 11 2 17 5 13
3 -3 4 -12 1 -19z m0 -410 c-3 -8 -6 -5 -6 6 -1 11 2 17 5 13 3 -3 4 -12 1
-19z m-2063 -512 l18 -53 -36 -112 c-20 -62 -36 -117 -36 -123 0 -6 -31 -43
-69 -83 -38 -40 -87 -96 -110 -125 -22 -28 -41 -49 -41 -44 0 23 48 160 89
257 70 162 153 337 160 337 4 0 15 -24 25 -54z m1446 9 c0 -3 -11 -23 -24 -44
-29 -45 -79 -89 -123 -108 -28 -11 -33 -18 -33 -48 0 -27 5 -38 23 -46 l22
-10 -22 5 c-19 3 -23 0 -23 -19 0 -13 -8 -31 -17 -41 -17 -17 -18 -16 -21 12
-2 16 -1 56 3 89 l6 60 60 35 c33 19 77 53 97 76 34 39 52 52 52 39z m3 -98
c-3 -31 -9 -57 -12 -57 -7 0 -3 86 5 109 9 28 13 4 7 -52z m-103 -82 c-7 -8
-24 -15 -39 -14 -24 0 -24 1 9 14 45 17 44 17 30 0z m70 -20 c-13 -14 -27 -25
-32 -25 -9 0 42 49 51 50 3 0 -6 -11 -19 -25z m-100 -75 c-27 -21 -45 -26 -35
-9 6 9 41 27 55 28 3 0 -6 -8 -20 -19z"/>
<path d="M9018 3263 c-19 -23 -31 -43 -24 -43 2 0 14 14 26 30 23 33 22 40 -2
13z"/>
<path d="M7043 3243 c1 -19 6 -28 11 -23 6 6 5 18 -2 32 -10 22 -10 21 -9 -9z"/>
<path d="M7402 3250 c0 -14 2 -19 5 -12 2 6 2 18 0 25 -3 6 -5 1 -5 -13z"/>
<path d="M7442 3240 c0 -19 2 -27 5 -17 2 9 2 25 0 35 -3 9 -5 1 -5 -18z"/>
<path d="M7865 3260 c27 -12 43 -12 25 0 -8 5 -22 9 -30 9 -10 0 -8 -3 5 -9z"/>
<path d="M7918 3263 c7 -3 16 -2 19 1 4 3 -2 6 -13 5 -11 0 -14 -3 -6 -6z"/>
<path d="M8914 3248 l-19 -23 23 19 c12 11 22 21 22 23 0 8 -8 2 -26 -19z"/>
<path d="M2300 3222 c-32 -48 -37 -60 -17 -43 16 13 50 72 44 77 -1 1 -13 -14
-27 -34z"/>
<path d="M1121 3235 c8 -9 33 -18 55 -20 l39 -5 -37 13 c-20 6 -40 15 -44 20
-4 4 -12 7 -18 7 -6 0 -3 -7 5 -15z"/>
<path d="M2478 3213 c-9 -18 -11 -48 -8 -83 5 -51 6 -53 11 -20 4 19 3 44 -1
55 -5 12 -2 31 6 48 8 15 12 27 10 27 -3 0 -11 -12 -18 -27z"/>
<path d="M7150 3228 c0 -9 5 -20 10 -23 13 -8 13 5 0 25 -8 13 -10 13 -10 -2z"/>
<path d="M7391 3204 c0 -11 3 -14 6 -6 3 7 2 16 -1 19 -3 4 -6 -2 -5 -13z"/>
<path d="M8068 3213 c7 -3 16 -2 19 1 4 3 -2 6 -13 5 -11 0 -14 -3 -6 -6z"/>
<path d="M930 3190 c8 -16 71 -78 117 -118 13 -10 19 -23 15 -27 -4 -5 -2 -5
4 -2 7 4 37 -5 69 -19 31 -14 59 -23 62 -20 4 3 1 6 -6 6 -7 0 -9 4 -6 10 3 5
0 7 -8 4 -27 -10 -121 48 -189 116 -37 37 -63 60 -58 50z"/>
<path d="M2522 3190 c0 -14 2 -19 5 -12 2 6 2 18 0 25 -3 6 -5 1 -5 -13z"/>
<path d="M8235 3184 c-9 -15 -12 -23 -6 -20 11 7 35 46 28 46 -3 0 -12 -12
-22 -26z"/>
<path d="M8840 3200 c-9 -6 -10 -10 -3 -10 6 0 15 5 18 10 8 12 4 12 -15 0z"/>
<path d="M541 3190 c0 -8 4 -24 9 -35 5 -13 9 -14 9 -5 0 8 -4 24 -9 35 -5 13
-9 14 -9 5z"/>
<path d="M1075 3153 c15 -27 34 -55 42 -63 9 -8 4 4 -11 27 -14 24 -26 49 -26
57 0 8 -7 17 -16 20 -12 5 -9 -6 11 -41z"/>
<path d="M1278 3193 c7 -3 16 -2 19 1 4 3 -2 6 -13 5 -11 0 -14 -3 -6 -6z"/>
<path d="M7033 3140 c0 -36 2 -50 4 -32 2 17 2 47 0 65 -2 17 -4 3 -4 -33z"/>
<path d="M7450 3184 c0 -8 5 -12 10 -9 6 4 8 11 5 16 -9 14 -15 11 -15 -7z"/>
<path d="M1100 3169 c0 -5 5 -7 10 -4 6 3 10 8 10 11 0 2 -4 4 -10 4 -5 0 -10
-5 -10 -11z"/>
<path d="M1140 3171 c0 -5 5 -13 10 -16 6 -3 10 -2 10 4 0 5 -4 13 -10 16 -5
3 -10 2 -10 -4z"/>
<path d="M7140 3166 c0 -9 5 -16 10 -16 6 0 10 4 10 9 0 6 -4 13 -10 16 -5 3
-10 -1 -10 -9z"/>
<path d="M7381 3154 c0 -11 3 -14 6 -6 3 7 2 16 -1 19 -3 4 -6 -2 -5 -13z"/>
<path d="M7464 3157 c-3 -8 2 -28 11 -44 13 -24 15 -25 9 -4 -4 17 -3 21 6 16
9 -6 9 -2 0 16 -17 33 -19 34 -26 16z"/>
<path d="M2531 3144 c0 -11 3 -14 6 -6 3 7 2 16 -1 19 -3 4 -6 -2 -5 -13z"/>
<path d="M8192 3123 c-26 -38 -34 -53 -29 -53 2 0 16 18 31 40 29 45 28 56 -2
13z"/>
<path d="M567 3095 c6 -40 10 -52 17 -44 2 2 -3 22 -10 44 l-13 40 6 -40z"/>
<path d="M2311 3114 c0 -11 3 -14 6 -6 3 7 2 16 -1 19 -3 4 -6 -2 -5 -13z"/>
<path d="M7137 3123 c-4 -3 -7 -16 -6 -27 0 -19 1 -19 10 3 10 24 8 36 -4 24z"/>
<path d="M7366 3099 c-8 -42 0 -50 9 -9 4 17 5 34 2 36 -2 3 -7 -10 -11 -27z"/>
<path d="M640 3115 c0 -5 5 -17 10 -25 5 -8 10 -10 10 -5 0 6 -5 17 -10 25 -5
8 -10 11 -10 5z"/>
<path d="M2541 3104 c0 -11 3 -14 6 -6 3 7 2 16 -1 19 -3 4 -6 -2 -5 -13z"/>
<path d="M7519 3082 c11 -16 28 -35 38 -43 9 -8 2 5 -17 29 -38 48 -52 57 -21
14z"/>
<path d="M7500 3060 c6 -11 13 -20 16 -20 2 0 0 9 -6 20 -6 11 -13 20 -16 20
-2 0 0 -9 6 -20z"/>
<path d="M1145 3050 c10 -11 20 -20 23 -20 3 0 -3 9 -13 20 -10 11 -20 20 -23
20 -3 0 3 -9 13 -20z"/>
<path d="M7046 3044 c-4 -14 -5 -28 -3 -31 3 -2 8 8 11 23 4 14 5 28 3 31 -3
2 -8 -8 -11 -23z"/>
<path d="M7121 3054 c0 -11 3 -14 6 -6 3 7 2 16 -1 19 -3 4 -6 -2 -5 -13z"/>
<path d="M7832 3050 c0 -14 2 -19 5 -12 2 6 2 18 0 25 -3 6 -5 1 -5 -13z"/>
<path d="M521 3044 c0 -11 3 -14 6 -6 3 7 2 16 -1 19 -3 4 -6 -2 -5 -13z"/>
<path d="M2482 3040 c0 -14 2 -19 5 -12 2 6 2 18 0 25 -3 6 -5 1 -5 -13z"/>
<path d="M8140 3040 c-6 -11 -8 -20 -6 -20 3 0 10 9 16 20 6 11 8 20 6 20 -3
0 -10 -9 -16 -20z"/>
<path d="M7351 3034 c0 -11 3 -14 6 -6 3 7 2 16 -1 19 -3 4 -6 -2 -5 -13z"/>
<path d="M2340 3037 c0 -4 95 -247 124 -317 3 -8 3 -1 0 15 -3 17 -30 91 -61
165 -52 127 -63 152 -63 137z"/>
<path d="M580 3014 c0 -8 5 -12 10 -9 6 3 10 10 10 16 0 5 -4 9 -10 9 -5 0
-10 -7 -10 -16z"/>
<path d="M666 3015 c-3 -9 0 -18 8 -21 8 -3 12 -15 10 -27 -2 -12 -2 -16 2 -9
3 6 10 9 16 6 5 -3 2 9 -7 27 -22 43 -21 43 -29 24z"/>
<path d="M7535 3010 c10 -11 20 -20 23 -20 3 0 -3 9 -13 20 -10 11 -20 20 -23
20 -3 0 3 -9 13 -20z"/>
<path d="M2566 3005 c-7 -20 30 -95 47 -94 9 0 9 2 -1 6 -6 2 -10 9 -6 14 3 5
1 9 -5 9 -6 0 -7 7 -4 17 5 11 3 14 -6 8 -10 -5 -12 -2 -7 11 8 25 -9 53 -18
29z"/>
<path d="M7056 3005 c-3 -9 -6 -22 -5 -28 0 -7 5 -1 10 12 5 13 8 26 5 28 -2
2 -6 -3 -10 -12z"/>
<path d="M1217 2999 c7 -7 15 -10 18 -7 3 3 -2 9 -12 12 -14 6 -15 5 -6 -5z"/>
<path d="M2163 2950 c0 -36 2 -50 4 -32 2 17 2 47 0 65 -2 17 -4 3 -4 -33z"/>
<path d="M2210 3005 c0 -5 5 -17 10 -25 5 -8 10 -10 10 -5 0 6 -5 17 -10 25
-5 8 -10 11 -10 5z"/>
<path d="M7206 2995 c-9 -26 -7 -32 5 -12 6 10 9 21 6 23 -2 3 -7 -2 -11 -11z"/>
<path d="M7341 3003 c-1 -6 -4 -20 -7 -30 -5 -17 -5 -17 6 0 6 10 9 23 6 30
-3 9 -5 9 -5 0z"/>
<path d="M333 2925 c0 -44 2 -61 4 -37 2 23 2 59 0 80 -2 20 -4 1 -4 -43z"/>
<path d="M597 2983 c-4 -3 -7 -11 -7 -17 0 -6 5 -5 12 2 6 6 9 14 7 17 -3 3
-9 2 -12 -2z"/>
<path d="M1730 2970 c0 -11 2 -20 5 -20 2 0 9 9 15 20 9 16 8 20 -5 20 -8 0
-15 -9 -15 -20z"/>
<path d="M528 2905 c-3 -31 -1 -73 2 -93 6 -27 8 -12 9 56 0 50 -1 92 -3 92
-2 0 -6 -25 -8 -55z"/>
<path d="M2502 2940 c0 -14 2 -19 5 -12 2 6 2 18 0 25 -3 6 -5 1 -5 -13z"/>
<path d="M7161 2878 c-41 -104 -46 -120 -27 -87 19 32 68 161 63 166 -2 2 -18
-34 -36 -79z"/>
<path d="M602 2883 c1 -40 3 -53 5 -33 3 19 10 41 16 49 10 12 9 13 -2 6 -11
-6 -13 -3 -7 19 4 15 2 26 -4 26 -6 0 -9 -27 -8 -67z"/>
<path d="M734 2908 c26 -46 26 -49 11 -79 -16 -30 -15 -34 9 -90 35 -80 137
-194 233 -261 l43 -29 -63 98 c-35 54 -76 120 -92 146 -15 26 -29 46 -32 43
-2 -2 19 -42 48 -88 36 -57 44 -76 26 -60 -31 29 -90 138 -82 151 3 6 -20 52
-51 103 -62 100 -95 143 -50 66z"/>
<path d="M7321 2934 c0 -11 3 -14 6 -6 3 7 2 16 -1 19 -3 4 -6 -2 -5 -13z"/>
<path d="M691 2930 c0 -8 4 -24 9 -35 5 -13 9 -14 9 -5 0 8 -4 24 -9 35 -5 13
-9 14 -9 5z"/>
<path d="M2250 2940 c0 -3 16 -50 35 -105 19 -55 35 -89 35 -76 0 24 0 24 15
5 12 -16 12 -12 -1 21 -25 62 -84 171 -84 155z"/>
<path d="M7086 2915 c-3 -9 -6 -22 -5 -28 0 -7 5 -1 10 12 5 13 8 26 5 28 -2
2 -6 -3 -10 -12z"/>
<path d="M1154 2895 c11 -8 17 -15 13 -15 -4 0 -1 -13 8 -30 9 -16 18 -30 21
-30 2 0 -2 14 -11 30 -9 17 -14 30 -12 30 3 0 37 -14 78 -31 100 -42 235 -86
284 -94 22 -3 -9 10 -70 29 -60 19 -141 48 -180 64 -146 62 -152 64 -131 47z"/>
<path d="M2512 2890 c0 -14 2 -19 5 -12 2 6 2 18 0 25 -3 6 -5 1 -5 -13z"/>
<path d="M7306 2895 c-9 -26 -7 -32 5 -12 6 10 9 21 6 23 -2 3 -7 -2 -11 -11z"/>
<path d="M8071 2864 c0 -11 3 -14 6 -6 3 7 2 16 -1 19 -3 4 -6 -2 -5 -13z"/>
<path d="M443 2820 c0 -30 2 -43 4 -27 2 15 2 39 0 55 -2 15 -4 2 -4 -28z"/>
<path d="M2521 2850 c0 -8 4 -22 9 -30 12 -18 12 -2 0 25 -6 13 -9 15 -9 5z"/>
<path d="M2656 2825 c-3 -9 -6 -26 -5 -38 1 -14 4 -9 9 13 9 37 7 52 -4 25z"/>
<path d="M7269 2818 c-7 -13 -19 -34 -27 -48 -14 -24 -13 -24 3 -5 20 24 48
75 41 75 -3 0 -11 -10 -17 -22z"/>
<path d="M8061 2814 c0 -11 3 -14 6 -6 3 7 2 16 -1 19 -3 4 -6 -2 -5 -13z"/>
<path d="M2177 2775 c3 -27 7 -52 9 -54 7 -8 2 54 -6 79 -6 17 -7 9 -3 -25z"/>
<path d="M1230 2750 c17 -33 33 -60 35 -60 3 0 -8 27 -25 60 -17 33 -33 60
-35 60 -3 0 8 -27 25 -60z"/>
<path d="M2671 2800 c0 -8 4 -22 9 -30 12 -18 12 -2 0 25 -6 13 -9 15 -9 5z"/>
<path d="M332 2770 c0 -14 2 -19 5 -12 2 6 2 18 0 25 -3 6 -5 1 -5 -13z"/>
<path d="M593 2735 c0 -22 2 -30 4 -17 2 12 2 30 0 40 -3 9 -5 -1 -4 -23z"/>
<path d="M7097 2725 c-24 -50 -20 -58 4 -12 11 22 19 41 17 43 -3 2 -12 -12
-21 -31z"/>
<path d="M523 2710 c0 -25 2 -35 4 -22 2 12 2 32 0 45 -2 12 -4 2 -4 -23z"/>
<path d="M2691 2734 c0 -11 3 -14 6 -6 3 7 2 16 -1 19 -3 4 -6 -2 -5 -13z"/>
<path d="M2321 2714 c0 -11 3 -14 6 -6 3 7 2 16 -1 19 -3 4 -6 -2 -5 -13z"/>
<path d="M2350 2688 c0 -25 -3 -55 -6 -65 -5 -15 -4 -15 5 -3 6 8 11 28 11 43
0 17 4 26 10 22 6 -4 9 -9 6 -13 -2 -4 0 -16 5 -27 7 -19 8 -19 8 2 1 13 -8
37 -19 55 l-20 33 0 -47z"/>
<path d="M7031 2714 c0 -11 3 -14 6 -6 3 7 2 16 -1 19 -3 4 -6 -2 -5 -13z"/>
<path d="M2661 2675 c-1 -27 -8 -68 -16 -90 -12 -34 -12 -37 0 -21 17 22 28
91 22 132 -3 20 -5 13 -6 -21z"/>
<path d="M8127 2676 c-4 -27 -6 -70 -6 -95 2 -32 3 -37 6 -16 2 17 9 40 15 52
7 15 8 36 2 65 l-10 43 -7 -49z"/>
<path d="M323 2675 c0 -22 2 -30 4 -17 2 12 2 30 0 40 -3 9 -5 -1 -4 -23z"/>
<path d="M432 2680 c0 -19 2 -27 5 -17 2 9 2 25 0 35 -3 9 -5 1 -5 -18z"/>
<path d="M2471 2700 c0 -3 6 -25 13 -50 8 -25 15 -36 15 -25 0 17 -26 88 -28
75z"/>
<path d="M7021 2674 c0 -11 3 -14 6 -6 3 7 2 16 -1 19 -3 4 -6 -2 -5 -13z"/>
<path d="M2322 2645 c0 -16 2 -22 5 -12 2 9 2 23 0 30 -3 6 -5 -1 -5 -18z"/>
<path d="M7062 2645 c-17 -37 -14 -45 4 -12 9 16 14 31 11 33 -2 2 -9 -7 -15
-21z"/>
<path d="M512 2625 c0 -16 2 -22 5 -12 2 9 2 23 0 30 -3 6 -5 -1 -5 -18z"/>
<path d="M2713 2610 c0 -25 2 -35 4 -22 2 12 2 32 0 45 -2 12 -4 2 -4 -23z"/>
<path d="M2581 2624 c0 -11 3 -14 6 -6 3 7 2 16 -1 19 -3 4 -6 -2 -5 -13z"/>
<path d="M312 2600 c0 -14 2 -19 5 -12 2 6 2 18 0 25 -3 6 -5 1 -5 -13z"/>
<path d="M422 2595 c0 -16 2 -22 5 -12 2 9 2 23 0 30 -3 6 -5 -1 -5 -18z"/>
<path d="M7001 2584 c0 -11 3 -14 6 -6 3 7 2 16 -1 19 -3 4 -6 -2 -5 -13z"/>
<path d="M8842 2575 c0 -16 2 -22 5 -12 2 9 2 23 0 30 -3 6 -5 -1 -5 -18z"/>
<path d="M496 2544 c-3 -26 -4 -49 -2 -52 3 -2 8 17 11 43 4 25 5 48 3 51 -3
2 -8 -17 -12 -42z"/>
<path d="M302 2550 c0 -14 2 -19 5 -12 2 6 2 18 0 25 -3 6 -5 1 -5 -13z"/>
<path d="M412 2530 c0 -14 2 -19 5 -12 2 6 2 18 0 25 -3 6 -5 1 -5 -13z"/>
<path d="M836 2500 c42 -76 254 -266 254 -227 -1 38 -22 64 -109 131 -53 41
-111 87 -130 103 l-35 27 20 -34z"/>
<path d="M2114 2514 c-18 -14 -18 -15 4 -4 12 6 22 13 22 15 0 8 -5 6 -26 -11z"/>
<path d="M283 2489 c-7 -18 -11 -35 -8 -37 6 -6 27 48 23 60 -2 5 -9 -6 -15
-23z"/>
<path d="M1366 2467 c15 -33 44 -109 65 -170 21 -62 38 -105 39 -96 0 9 -6 35
-14 57 -13 37 -13 41 2 45 12 3 10 5 -5 6 -13 0 -23 6 -23 11 0 19 -59 165
-75 186 -8 10 -3 -7 11 -39z"/>
<path d="M2200 2459 c-46 -27 -80 -49 -74 -49 11 0 164 88 164 95 0 7 4 9 -90
-46z"/>
<path d="M401 2474 c0 -11 3 -14 6 -6 3 7 2 16 -1 19 -3 4 -6 -2 -5 -13z"/>
<path d="M2448 2483 c7 -3 16 -2 19 1 4 3 -2 6 -13 5 -11 0 -14 -3 -6 -6z"/>
<path d="M8349 2453 l-34 -38 38 34 c34 33 42 41 34 41 -2 0 -19 -17 -38 -37z"/>
<path d="M481 2464 c0 -11 3 -14 6 -6 3 7 2 16 -1 19 -3 4 -6 -2 -5 -13z"/>
<path d="M1905 2434 c-49 -19 -74 -31 -55 -28 53 10 195 68 153 63 -5 0 -48
-16 -98 -35z"/>
<path d="M8860 2446 c0 -11 50 -106 55 -106 3 0 -7 24 -21 53 -28 55 -34 65
-34 53z"/>
<path d="M471 2424 c0 -11 3 -14 6 -6 3 7 2 16 -1 19 -3 4 -6 -2 -5 -13z"/>
<path d="M7270 2415 c-7 -9 -11 -17 -9 -20 3 -2 10 5 17 15 14 24 10 26 -8 5z"/>
<path d="M2360 2400 c-9 -6 -10 -10 -3 -10 6 0 15 5 18 10 8 12 4 12 -15 0z"/>
<path d="M8130 2406 c0 -2 8 -10 18 -17 15 -13 16 -12 3 4 -13 16 -21 21 -21
13z"/>
<path d="M8266 2363 l-48 -48 5 45 c4 30 3 38 -3 25 -5 -11 -9 -35 -9 -54 -1
-21 -12 -47 -31 -71 -30 -38 -40 -92 -20 -105 21 -13 -25 -56 -91 -87 -82 -38
-86 -49 -5 -13 l58 25 -7 -67 c-10 -98 -39 -152 -100 -186 -120 -66 -155 -72
-187 -31 -25 31 -68 30 -83 -4 -12 -27 -27 -24 -36 9 -6 20 -7 17 -8 -14 -1
-21 6 -54 14 -74 8 -20 14 -37 13 -38 -2 0 -34 -14 -71 -29 -37 -16 -66 -30
-64 -32 2 -2 41 11 86 30 45 19 79 36 74 38 -4 3 -2 3 6 1 20 -5 101 28 98 40
-1 6 7 12 18 14 l20 3 -20 -9 c-13 -6 -15 -10 -5 -10 9 -1 2 -14 -21 -38 -75
-82 -80 -94 -8 -23 51 50 72 78 65 83 -7 6 -5 7 6 4 9 -3 36 7 60 22 60 38
112 55 117 39 7 -21 50 142 57 217 4 39 12 82 20 96 8 16 9 30 3 40 -22 35 -8
65 72 157 44 50 79 92 77 92 -2 0 -25 -21 -52 -47z m-458 -604 c-3 -8 -7 -3
-11 10 -4 17 -3 21 5 13 5 -5 8 -16 6 -23z"/>
<path d="M2235 2354 c-44 -18 -74 -34 -68 -34 12 0 164 58 172 66 12 12 -33
-2 -104 -32z"/>
<path d="M227 2318 c-9 -29 -15 -54 -13 -56 2 -2 12 20 21 48 9 28 15 53 13
55 -2 3 -12 -19 -21 -47z"/>
<path d="M1958 2363 c7 -3 16 -2 19 1 4 3 -2 6 -13 5 -11 0 -14 -3 -6 -6z"/>
<path d="M7323 2300 c0 -41 2 -58 4 -37 2 20 2 54 0 75 -2 20 -4 3 -4 -38z"/>
<path d="M7241 2334 c0 -11 3 -14 6 -6 3 7 2 16 -1 19 -3 4 -6 -2 -5 -13z"/>
<path d="M2045 2294 l-50 -14 44 5 c24 3 51 10 60 15 21 12 7 11 -54 -6z"/>
<path d="M2392 2293 c-24 -8 -41 -17 -38 -20 5 -5 106 26 106 33 0 7 -24 3
-68 -13z"/>
<path d="M8860 2305 c0 -41 190 -436 236 -491 13 -16 -1 16 -33 71 -49 88
-143 278 -143 291 0 3 4 2 10 -1 6 -3 7 1 4 9 -3 9 -10 14 -14 11 -4 -3 -18
22 -30 55 -20 53 -30 72 -30 55z"/>
<path d="M8940 2290 c6 -11 13 -20 16 -20 2 0 0 9 -6 20 -6 11 -13 20 -16 20
-2 0 0 -9 6 -20z"/>
<path d="M7232 2270 c0 -19 2 -27 5 -17 2 9 2 25 0 35 -3 9 -5 1 -5 -18z"/>
<path d="M1808 2283 c7 -3 16 -2 19 1 4 3 -2 6 -13 5 -11 0 -14 -3 -6 -6z"/>
<path d="M1943 2273 c9 -2 25 -2 35 0 9 3 1 5 -18 5 -19 0 -27 -2 -17 -5z"/>
<path d="M1798 2263 c7 -3 16 -2 19 1 4 3 -2 6 -13 5 -11 0 -14 -3 -6 -6z"/>
<path d="M2248 2253 c12 -2 30 -2 40 0 9 3 -1 5 -23 4 -22 0 -30 -2 -17 -4z"/>
<path d="M8978 2230 c42 -70 142 -206 187 -255 31 -34 25 -24 -19 32 -35 45
-88 117 -117 160 -55 82 -87 122 -51 63z"/>
<path d="M177 2183 c-15 -37 -25 -68 -23 -70 2 -2 16 26 30 63 15 36 25 68 23
70 -2 2 -16 -26 -30 -63z"/>
<path d="M2198 2243 c7 -3 16 -2 19 1 4 3 -2 6 -13 5 -11 0 -14 -3 -6 -6z"/>
<path d="M2098 2213 c7 -3 16 -2 19 1 4 3 -2 6 -13 5 -11 0 -14 -3 -6 -6z"/>
<path d="M7215 2161 c-8 -74 1 -121 23 -121 15 0 15 2 2 10 -12 7 -15 27 -13
90 1 44 1 80 -1 80 -2 0 -7 -27 -11 -59z"/>
<path d="M7313 2165 c0 -27 2 -38 4 -22 2 15 2 37 0 50 -2 12 -4 0 -4 -28z"/>
<path d="M1471 2164 c0 -11 3 -14 6 -6 3 7 2 16 -1 19 -3 4 -6 -2 -5 -13z"/>
<path d="M8950 2141 c5 -11 15 -23 21 -27 6 -3 3 5 -6 20 -20 30 -30 35 -15 7z"/>
<path d="M1481 2124 c0 -11 3 -14 6 -6 3 7 2 16 -1 19 -3 4 -6 -2 -5 -13z"/>
<path d="M7278 2115 c-4 -16 -9 -39 -13 -50 -3 -11 1 -7 10 8 9 16 15 38 13
50 -3 19 -5 17 -10 -8z"/>
<path d="M1422 2110 c0 -14 2 -19 5 -12 2 6 2 18 0 25 -3 6 -5 1 -5 -13z"/>
<path d="M7293 2070 c-5 -22 -7 -37 -2 -35 9 6 23 64 17 70 -2 3 -9 -13 -15
-35z"/>
<path d="M1489 2068 c4 -28 6 -29 9 -9 2 13 0 27 -5 32 -6 6 -7 -3 -4 -23z"/>
<path d="M9007 2065 c17 -22 46 -53 64 -70 20 -17 13 -7 -15 25 -69 77 -85 92
-49 45z"/>
<path d="M1433 2035 c0 -22 2 -30 4 -17 2 12 2 30 0 40 -3 9 -5 -1 -4 -23z"/>
<path d="M112 2035 c-17 -37 -14 -45 4 -12 9 16 14 31 11 33 -2 2 -9 -7 -15
-21z"/>
<path d="M7353 2043 c9 -2 25 -2 35 0 9 3 1 5 -18 5 -19 0 -27 -2 -17 -5z"/>
<path d="M1502 2005 c0 -16 2 -22 5 -12 2 9 2 23 0 30 -3 6 -5 -1 -5 -18z"/>
<path d="M7195 2011 c-3 -12 -9 -19 -13 -17 -4 2 -8 -8 -9 -22 -1 -24 1 -23
19 11 11 22 17 41 15 44 -3 2 -8 -5 -12 -16z"/>
<path d="M7129 2003 c-13 -16 -12 -17 4 -4 16 13 21 21 13 21 -2 0 -10 -8 -17
-17z"/>
<path d="M7848 1993 c7 -3 16 -2 19 1 4 3 -2 6 -13 5 -11 0 -14 -3 -6 -6z"/>
<path d="M162 1895 c-17 -36 -30 -65 -27 -65 7 0 67 121 63 126 -2 2 -18 -26
-36 -61z"/>
<path d="M1443 1925 c0 -22 2 -30 4 -17 2 12 2 30 0 40 -3 9 -5 -1 -4 -23z"/>
<path d="M7129 1933 c-13 -16 -12 -17 4 -4 9 7 17 15 17 17 0 8 -8 3 -21 -13z"/>
<path d="M6983 1933 c9 -2 23 -2 30 0 6 3 -1 5 -18 5 -16 0 -22 -2 -12 -5z"/>
<path d="M7163 1885 c0 -33 2 -45 4 -27 2 18 2 45 0 60 -2 15 -4 0 -4 -33z"/>
<path d="M9120 1938 c0 -2 33 -33 73 -68 39 -35 61 -51 47 -36 -26 30 -120
111 -120 104z"/>
<path d="M7241 1904 c0 -11 3 -14 6 -6 3 7 2 16 -1 19 -3 4 -6 -2 -5 -13z"/>
<path d="M41 1883 c-10 -26 -10 -27 4 -9 8 11 15 23 15 28 0 15 -7 8 -19 -19z"/>
<path d="M9265 1860 c27 -27 51 -50 54 -50 3 0 -17 23 -44 50 -27 28 -51 50
-54 50 -3 0 17 -22 44 -50z"/>
<path d="M1362 1875 c0 -16 2 -22 5 -12 2 9 2 23 0 30 -3 6 -5 -1 -5 -18z"/>
<path d="M7338 1873 c6 -2 18 -2 25 0 6 3 1 5 -13 5 -14 0 -19 -2 -12 -5z"/>
<path d="M7252 1814 c-2 -31 2 -44 14 -48 13 -5 14 -3 6 6 -6 7 -12 29 -15 48
-4 34 -4 34 -5 -6z"/>
<path d="M116 1805 c-3 -8 -1 -15 4 -15 6 0 10 7 10 15 0 8 -2 15 -4 15 -2 0
-6 -7 -10 -15z"/>
<path d="M9285 1790 c10 -11 20 -20 23 -20 3 0 -3 9 -13 20 -10 11 -20 20 -23
20 -3 0 3 -9 13 -20z"/>
<path d="M7635 1790 c11 -5 27 -9 35 -9 9 0 8 4 -5 9 -11 5 -27 9 -35 9 -9 0
-8 -4 5 -9z"/>
<path d="M8067 1755 c-9 -19 -15 -35 -12 -35 7 0 37 61 33 66 -3 2 -12 -12
-21 -31z"/>
<path d="M7170 1765 c-7 -8 -16 -13 -20 -10 -4 3 -11 -2 -14 -11 -7 -18 10
-44 27 -44 6 0 2 7 -9 15 -19 14 -18 14 6 32 13 10 34 21 45 25 19 6 19 6 -1
7 -12 1 -27 -6 -34 -14z"/>
<path d="M7233 1735 c-3 -9 -3 -18 -1 -21 3 -3 8 4 11 16 6 23 -1 27 -10 5z"/>
<path d="M8730 1746 c0 -11 40 -86 45 -86 3 0 -4 19 -16 43 -23 45 -29 54 -29
43z"/>
<path d="M6945 1688 l-40 -43 43 40 c39 36 47 45 39 45 -2 0 -21 -19 -42 -42z"/>
<path d="M92 1695 c-6 -14 -8 -25 -3 -25 8 0 23 41 17 47 -1 2 -8 -8 -14 -22z"/>
<path d="M9190 1658 c22 -36 52 -75 65 -88 15 -14 1 13 -31 60 -66 100 -93
121 -34 28z"/>
<path d="M41 1674 c-12 -19 -16 -32 -11 -29 11 7 43 65 36 65 -2 0 -13 -16
-25 -36z"/>
<path d="M7121 1678 c0 -20 3 -48 9 -62 8 -23 7 -26 -13 -27 -17 -1 -15 -3 8
-8 17 -4 37 -5 45 -2 12 4 12 6 -2 9 -17 3 -33 43 -42 102 -2 17 -4 13 -5 -12z"/>
<path d="M7236 1666 c3 -21 12 -49 20 -62 15 -21 14 -23 -13 -27 -23 -3 -22
-4 10 -6 l37 -1 -16 25 c-9 13 -22 44 -30 67 l-14 43 6 -39z"/>
<path d="M77 1643 c4 -11 3 -14 -5 -9 -7 4 -10 2 -7 -6 3 -8 -1 -33 -10 -57
-8 -24 -15 -49 -14 -55 1 -12 49 122 49 136 0 4 -4 8 -10 8 -5 0 -6 -7 -3 -17z"/>
<path d="M8795 1623 c34 -53 45 -67 45 -60 0 10 -51 87 -57 87 -3 0 3 -12 12
-27z"/>
<path d="M6879 1613 l-24 -28 28 24 c15 14 27 26 27 28 0 8 -8 1 -31 -24z"/>
<path d="M5 1619 c-4 -6 -5 -12 -2 -15 2 -3 7 2 10 11 7 17 1 20 -8 4z"/>
<path d="M7448 1578 c5 -5 16 -8 23 -6 8 3 3 7 -10 11 -17 4 -21 3 -13 -5z"/>
<path d="M6839 1563 c-13 -16 -12 -17 4 -4 16 13 21 21 13 21 -2 0 -10 -8 -17
-17z"/>
<path d="M7331 1576 c2 -2 26 -6 53 -9 30 -3 43 -1 35 4 -13 8 -97 13 -88 5z"/>
<path d="M6982 1524 c-24 -19 -39 -34 -33 -34 5 0 12 4 16 10 3 5 13 6 22 3
10 -4 14 -2 9 5 -3 6 4 18 16 26 12 9 20 17 17 19 -2 2 -23 -11 -47 -29z"/>
<path d="M7145 1539 c-4 -6 -5 -12 -2 -15 2 -3 7 2 10 11 7 17 1 20 -8 4z"/>
<path d="M7325 1530 c-3 -6 1 -7 9 -4 18 7 21 14 7 14 -6 0 -13 -4 -16 -10z"/>
<path d="M7270 1510 c0 -5 -16 -12 -36 -16 -29 -5 -33 -9 -21 -16 19 -10 81
17 72 32 -8 13 -15 13 -15 0z"/>
<path d="M7134 1490 c1 -9 12 -15 29 -16 24 -1 24 -1 3 3 -14 2 -27 10 -29 16
-2 7 -3 5 -3 -3z"/>
<path d="M8730 1455 c0 -5 5 -17 10 -25 5 -8 10 -10 10 -5 0 6 -5 17 -10 25
-5 8 -10 11 -10 5z"/>
<path d="M9005 1380 c38 -38 72 -70 74 -70 3 0 -26 32 -64 70 -38 39 -72 70
-74 70 -3 0 26 -31 64 -70z"/>
<path d="M6 1414 c-4 -14 -5 -28 -3 -31 3 -2 8 8 11 23 4 14 5 28 3 31 -3 2
-8 -8 -11 -23z"/>
<path d="M7134 1424 c-18 -14 -18 -15 4 -4 12 6 22 13 22 15 0 8 -5 6 -26 -11z"/>
<path d="M9380 1405 c23 -34 204 -215 214 -215 6 0 -6 16 -25 37 l-34 36 33
-22 c17 -12 32 -19 31 -14 0 10 -111 101 -121 99 -4 0 -31 22 -60 49 -28 28
-46 41 -38 30z m115 -95 c10 -11 16 -20 13 -20 -3 0 -13 9 -23 20 -10 11 -16
20 -13 20 3 0 13 -9 23 -20z"/>
<path d="M9115 1282 c21 -25 148 -122 160 -122 4 0 -21 21 -56 46 -35 26 -77
58 -94 73 -25 22 -26 22 -10 3z"/>
<path d="M8522 1230 c0 -14 2 -19 5 -12 2 6 2 18 0 25 -3 6 -5 1 -5 -13z"/>
<path d="M2341 1164 c-12 -19 -16 -32 -11 -29 11 7 43 65 36 65 -2 0 -13 -16
-25 -36z"/>
<path d="M8531 1184 c0 -11 3 -14 6 -6 3 7 2 16 -1 19 -3 4 -6 -2 -5 -13z"/>
<path d="M2060 1083 c-36 -61 -85 -120 -156 -191 -57 -57 -89 -93 -71 -81 85
59 184 178 261 312 48 82 21 51 -34 -40z"/>
<path d="M6529 1113 c-13 -16 -12 -17 4 -4 16 13 21 21 13 21 -2 0 -10 -8 -17
-17z"/>
<path d="M2279 1073 c-13 -16 -12 -17 4 -4 9 7 17 15 17 17 0 8 -8 3 -21 -13z"/>
<path d="M6503 1078 c-15 -20 -25 -38 -20 -38 3 0 12 11 21 25 17 26 16 35 -1
13z"/>
<path d="M8570 1075 c0 -5 5 -17 10 -25 5 -8 10 -10 10 -5 0 6 -5 17 -10 25
-5 8 -10 11 -10 5z"/>
<path d="M8605 1000 c9 -16 18 -30 21 -30 2 0 -2 14 -11 30 -9 17 -18 30 -21
30 -2 0 2 -13 11 -30z"/>
<path d="M9532 1008 c3 -7 10 -14 16 -14 7 -1 17 -2 23 -3 5 0 7 -5 4 -11 -3
-6 1 -7 10 -4 19 8 19 7 -24 29 -25 12 -32 13 -29 3z"/>
<path d="M9000 986 c0 -2 8 -10 18 -17 15 -13 16 -12 3 4 -13 16 -21 21 -21
13z"/>
<path d="M6409 943 l-24 -28 28 24 c15 14 27 26 27 28 0 8 -8 1 -31 -24z"/>
<path d="M9310 935 c13 -14 26 -25 28 -25 3 0 -5 11 -18 25 -13 14 -26 25 -28
25 -3 0 5 -11 18 -25z"/>
<path d="M9030 946 c0 -2 8 -10 18 -17 15 -13 16 -12 3 4 -13 16 -21 21 -21
13z"/>
<path d="M8414 912 c23 -26 23 -26 23 -7 0 8 -3 13 -5 10 -3 -3 -12 1 -21 7
-10 8 -9 4 3 -10z"/>
<path d="M8670 890 c6 -11 13 -20 16 -20 2 0 0 9 -6 20 -6 11 -13 20 -16 20
-2 0 0 -9 6 -20z"/>
<path d="M9075 890 c10 -11 20 -20 23 -20 3 0 -3 9 -13 20 -10 11 -20 20 -23
20 -3 0 3 -9 13 -20z"/>
<path d="M6369 852 c-3 -20 -2 -29 4 -23 5 5 7 19 5 32 -3 20 -5 19 -9 -9z"/>
<path d="M8470 866 c0 -2 8 -10 18 -17 15 -13 16 -12 3 4 -13 16 -21 21 -21
13z"/>
<path d="M9140 810 c23 -27 47 -53 53 -57 7 -4 -10 19 -37 50 -27 31 -51 57
-53 57 -3 0 14 -22 37 -50z"/>
<path d="M8520 826 c0 -2 8 -10 18 -17 15 -13 16 -12 3 4 -13 16 -21 21 -21
13z"/>
<path d="M6367 780 c4 -14 10 -43 14 -65 l6 -40 1 35 c1 19 -5 49 -13 65 -12
24 -13 25 -8 5z"/>
<path d="M8575 780 c10 -11 20 -20 23 -20 3 0 -3 9 -13 20 -10 11 -20 20 -23
20 -3 0 3 -9 13 -20z"/>
<path d="M8730 796 c0 -2 8 -10 18 -17 15 -13 16 -12 3 4 -13 16 -21 21 -21
13z"/>
<path d="M8610 756 c0 -2 8 -10 18 -17 15 -13 16 -12 3 4 -13 16 -21 21 -21
13z"/>
<path d="M8767 749 c7 -7 15 -10 18 -7 3 3 -2 9 -12 12 -14 6 -15 5 -6 -5z"/>
<path d="M9200 737 c0 -2 15 -16 33 -33 l32 -29 -29 33 c-28 30 -36 37 -36 29z"/>
<path d="M8650 726 c0 -2 8 -10 18 -17 15 -13 16 -12 3 4 -13 16 -21 21 -21
13z"/>
<path d="M8833 673 c18 -21 46 -52 64 -70 17 -18 28 -33 25 -33 -4 0 7 -11 23
-25 38 -31 21 -32 -25 -2 -58 39 -96 61 -85 50 21 -23 170 -115 187 -116 10
-1 18 -5 18 -9 0 -4 24 -20 53 -34 100 -50 326 -220 455 -342 28 -28 52 -47
52 -42 0 4 -18 24 -40 44 -45 41 -43 46 6 15 19 -11 34 -17 34 -12 -1 4 -40
33 -88 63 -48 30 -148 100 -222 156 -74 55 -157 113 -184 128 -76 44 -215 169
-258 232 -13 19 -28 34 -35 34 -6 0 3 -17 20 -37z m168 -170 c13 -15 12 -15
-8 -4 -24 12 -29 21 -14 21 5 0 15 -7 22 -17z"/>
<path d="M8286 671 c-19 -30 90 -80 128 -59 24 13 20 26 -16 48 -34 20 -102
27 -112 11z m65 -28 c13 -16 12 -17 -3 -4 -17 13 -22 21 -14 21 2 0 10 -8 17
-17z m30 0 c13 -16 12 -17 -3 -4 -17 13 -22 21 -14 21 2 0 10 -8 17 -17z"/>
<path d="M9320 605 c30 -30 57 -55 59 -55 3 0 -19 25 -49 55 -30 30 -57 55
-59 55 -3 0 19 -25 49 -55z"/>
<path d="M8760 646 c0 -2 14 -14 30 -26 17 -12 30 -19 30 -16 0 2 -13 14 -30
26 -16 12 -30 19 -30 16z"/>
<path d="M9500 428 c41 -45 50 -53 50 -45 0 2 -21 23 -47 47 l-48 45 45 -47z"/>
<path d="M9575 360 c10 -11 20 -20 23 -20 3 0 -3 9 -13 20 -10 11 -20 20 -23
20 -3 0 3 -9 13 -20z"/>
</g>
</svg>
